<svg id="Capa_1" data-name="Capa 1" xmlns="http://www.w3.org/2000/svg" xmlns:xlink="http://www.w3.org/1999/xlink" viewBox="0 0 215 215"><defs><style>.cls-1{fill:url(#Degradado_sin_nombre_9);}.cls-2{fill:#fff;}</style><linearGradient id="Degradado_sin_nombre_9" x1="50.25" y1="37.74" x2="427.81" y2="477.65" gradientUnits="userSpaceOnUse"><stop offset="0" stop-color="#56eeec"/><stop offset="0.07" stop-color="#59ccdb"/><stop offset="0.18" stop-color="#5ea2c6"/><stop offset="0.28" stop-color="#617fb5"/><stop offset="0.4" stop-color="#6462a6"/><stop offset="0.52" stop-color="#664b9b"/><stop offset="0.65" stop-color="#683b93"/><stop offset="0.8" stop-color="#69328e"/><stop offset="1" stop-color="#692f8d"/></linearGradient></defs><title>export iconos cv</title><circle class="cls-1" cx="108.11" cy="105.16" r="95.51"/><path class="cls-2" d="M141,77.31l-37.28,37.27L88.2,99a8.68,8.68,0,0,0-12.28,12.27L97.63,133a8.66,8.66,0,0,0,12.27,0l43.42-43.41A8.68,8.68,0,1,0,141,77.31Z"/><path class="cls-2" d="M203.62,96.47a8.69,8.69,0,0,0-8.69,8.69A86.84,86.84,0,1,1,169.71,44,8.68,8.68,0,1,0,182,31.75a104.19,104.19,0,1,0,30.26,73.41A8.69,8.69,0,0,0,203.62,96.47Z"/></svg>