<svg id="Capa_1" data-name="Capa 1" xmlns="http://www.w3.org/2000/svg" viewBox="0 0 215 215"><defs><style>.cls-1{fill:#fff;}</style></defs><title>export iconos cv</title><path class="cls-1" d="M141.3,79.63l-36.62,36.61L89.38,101A8.53,8.53,0,0,0,77.32,113l21.33,21.33a8.52,8.52,0,0,0,12.06,0l42.65-42.65A8.53,8.53,0,0,0,141.3,79.63Z"/><path class="cls-1" d="M202.78,98.45a8.53,8.53,0,0,0-8.53,8.53,85.32,85.32,0,1,1-24.78-60.1,8.53,8.53,0,1,0,12.11-12A102.35,102.35,0,1,0,211.31,107,8.53,8.53,0,0,0,202.78,98.45Z"/></svg>