<svg id="Capa_1" data-name="Capa 1" xmlns="http://www.w3.org/2000/svg" viewBox="0 0 215 215"><defs><style>.cls-1{fill:#fff;}</style></defs><title>export iconos cv</title><g id="sst10n.tif"><path class="cls-1" d="M128,145.83a24.52,24.52,0,0,1,34.59-3.89c9.26,7.43,11.78,21.16,5.77,31.22a24.42,24.42,0,0,1-43.8-21.3L79.88,126a24.67,24.67,0,0,1-36.79,1.92c-9.19-9.38-9.22-24.16.16-34.21,8-8.61,25.44-11.38,36.64,2L124.53,70c-5.21-14.47,2.7-27.4,13.63-31.79a24.45,24.45,0,0,1,30.41,10.73c5.9,10.21,3.13,23.83-6.22,31.14A24.54,24.54,0,0,1,128,76L115.3,83.32C105.09,89.21,94.9,95.13,84.66,101c-1.14.65-1.36,1.2-.92,2.44,2,5.49,1.59,11-.48,16.55Zm19.13,32.58a17.47,17.47,0,1,0-17.35-17.5A17.52,17.52,0,0,0,147.17,178.41ZM129.82,60.8a17.47,17.47,0,1,0,17.42-17.43A17.41,17.41,0,0,0,129.82,60.8ZM78.05,110.91a17.47,17.47,0,1,0-34.93,0,17.47,17.47,0,1,0,34.93,0Z"/><path class="cls-1" d="M50.36,110.42a10.29,10.29,0,0,1,10-9.83A3.47,3.47,0,0,1,61,107.5c-2.77.49-3.28,1-3.75,3.57-.4,2.26-1.78,3.41-3.84,3.21C51.46,114.09,50.33,112.64,50.36,110.42Z"/></g><path class="cls-1" d="M107.81,206.85a99.45,99.45,0,1,1,99.44-99.44A99.56,99.56,0,0,1,107.81,206.85Zm0-190.53a91.09,91.09,0,1,0,91.08,91.09A91.19,91.19,0,0,0,107.81,16.32Z"/><path class="cls-1" d="M107.81,155.23a8.36,8.36,0,0,1-8.36-8.36V67.94a8.36,8.36,0,0,1,16.72,0v78.93A8.36,8.36,0,0,1,107.81,155.23Z"/><path class="cls-1" d="M147.27,115.77H68.34a8.36,8.36,0,0,1,0-16.72h78.93a8.36,8.36,0,0,1,0,16.72Z"/></svg>