<svg id="Capa_1" data-name="Capa 1" xmlns="http://www.w3.org/2000/svg" viewBox="0 0 215 215"><defs><style>.cls-1{fill:#fff;}</style></defs><title>export iconos cv</title><path class="cls-1" d="M146.08,117q-4.61-6.46-13.79-8.43a22.64,22.64,0,0,0,10.91-8.38A22.19,22.19,0,0,0,147,87.48q0-14-10.11-21a39.2,39.2,0,0,0-15.92-6V44.66H108.68V59.48h-8.56V44.66H87.83V59.48H63.3V71.83l10.88,2.1v73.35l-10.88,2.1v12.28H87.84v12.57h12.28V161.66h8.56v12.57h12.25V161.28c8.32-.86,15-3.23,20.06-7.16q9.69-7.55,9.68-22.21A25.12,25.12,0,0,0,146.08,117ZM126.46,89.09q0,6.47-4.42,9.83t-12.63,3.37H94.67v-27h14q8.83,0,13.3,3.37T126.46,89.09ZM126,142.4q-4.27,3.54-12.42,3.54H94.67V116.47h20.42q7.86,0,11.51,4t3.65,11.48Q130.25,138.85,126,142.4Z"/><path class="cls-1" d="M107,215.08a107,107,0,1,1,107-107A107.11,107.11,0,0,1,107,215.08ZM107,9a99.07,99.07,0,1,0,99.06,99.07A99.18,99.18,0,0,0,107,9Z"/></svg>