<?xml version="1.0" encoding="iso-8859-1"?>
<!-- Generator: Adobe Illustrator 19.0.0, SVG Export Plug-In . SVG Version: 6.00 Build 0)  -->
<svg version="1.1" id="Capa_1" xmlns="http://www.w3.org/2000/svg" xmlns:xlink="http://www.w3.org/1999/xlink" x="0px" y="0px"
	 viewBox="0 0 512 512" style="enable-background:new 0 0 512 512;" xml:space="preserve">
<path style="fill:#FFB351;" d="M256,10.667c135.494,0,245.333,109.839,245.333,245.333S391.494,501.333,256,501.333
	S10.667,391.494,10.667,256S120.506,10.667,256,10.667z M448,256c0-106.039-85.961-192-192-192S64,149.961,64,256
	s85.961,192,192,192S448,362.039,448,256z"/>
<circle style="fill:#FFE451;" cx="256" cy="256" r="192"/>
<g>
	<path style="fill:#4C5B66;" d="M256,0C114.615,0,0,114.615,0,256s114.615,256,256,256s256-114.615,256-256
		C511.835,114.683,397.317,0.165,256,0z M256,490.667C126.397,490.667,21.333,385.603,21.333,256S126.397,21.333,256,21.333
		S490.667,126.397,490.667,256C490.52,385.542,385.542,490.52,256,490.667z"/>
	<path style="fill:#4C5B66;" d="M256,53.333C144.07,53.333,53.333,144.07,53.333,256S144.07,458.667,256,458.667
		S458.667,367.93,458.667,256C458.543,144.121,367.879,53.457,256,53.333z M256,437.333c-100.148,0-181.333-81.186-181.333-181.333
		S155.852,74.667,256,74.667S437.333,155.852,437.333,256C437.222,356.101,356.101,437.222,256,437.333z"/>
	<path style="fill:#4C5B66;" d="M341.333,213.333C341.298,183.893,317.441,160.035,288,160v-32h-21.333v32h-21.333v-32H224v32
		h-21.333c-5.891,0-10.667,4.776-10.667,10.667v170.667c0,5.891,4.776,10.667,10.667,10.667H224v32h21.333v-32h21.333v32H288v-32
		c29.455,0,53.333-23.878,53.333-53.333c0-16.787-7.904-32.594-21.333-42.667C333.43,245.928,341.333,230.12,341.333,213.333z
		 M320,298.667c0,17.673-14.327,32-32,32h-74.667v-64H288C305.673,266.667,320,280.994,320,298.667z M288,245.333h-74.667v-64H288
		c17.673,0,32,14.327,32,32S305.673,245.333,288,245.333z"/>
	<path style="fill:#4C5B66;" d="M106.667,245.333H128v21.333h-21.333V245.333z"/>
	<path style="fill:#4C5B66;" d="M384,245.333h21.333v21.333H384V245.333z"/>
</g>
<g>
</g>
<g>
</g>
<g>
</g>
<g>
</g>
<g>
</g>
<g>
</g>
<g>
</g>
<g>
</g>
<g>
</g>
<g>
</g>
<g>
</g>
<g>
</g>
<g>
</g>
<g>
</g>
<g>
</g>
</svg>
