<svg id="Capa_1" data-name="Capa 1" xmlns="http://www.w3.org/2000/svg" viewBox="0 0 520 520"><defs><style>.cls-1,.cls-2{fill:#fff;}.cls-1{stroke:#fff;stroke-miterlimit:10;stroke-width:0.25px;}</style></defs><title>compra</title><g id="JZXY34.tif"><path class="cls-1" d="M484.42,95.86c-1.4-1.89-3.34-2.37-5.58-2.36-13.09.08-26.17.09-39.25.15a22.79,22.79,0,0,0-3.7.27,46.52,46.52,0,0,0-38.54,39.68c-1.66,11.86-3.7,23.66-5.64,35.48-.64,3.94-1.5,7.83-2.25,11.63H322c-6.81-22.21-19.33-40.33-38.27-53.79a96.7,96.7,0,0,0-63.27-18.28c-31.9,1.86-73.67,23-89.17,72.32h-5.62Q85,181,44.47,181c-9.37,0-11.68,3.3-8.89,12.24q9.29,29.74,18.57,59.5,19.5,62.53,39,125.07c2.85,9.16,3.48,9.62,13,9.62h242.4c2.06,0,4.13.06,6.52.09-.22,2.1-.3,3.65-.55,5.18q-3,18-6,35.95c-1,6.08-2,12.17-3.14,18.23-.69,3.53-2.62,5.36-6.1,5.51-5.24.23-10.5.06-15.62.06C318.15,429.47,301.75,418.8,285,419c-22.1.27-34.91,12.53-40.12,33.27H189.19c-2.1-11-7.45-19.9-16.48-26.29a38,38,0,0,0-30.16-6.41c-20.81,4-31.63,22.91-31.91,37.85-.33,17.38,11.92,36.34,33.26,39.9,9.1,1.51,17.64-.34,25.57-4.57,10.93-5.84,17-15.51,19.69-27.47h56c5.19,19.75,17.8,31.86,38.17,32.22,21.33.38,34.61-11.83,40.2-32.43,5.36,0,10.47.09,15.58,0a19.15,19.15,0,0,0,18.69-15c.55-2.4.87-4.85,1.26-7.29,1.92-11.82,3.8-23.65,5.75-35.46,2-12,4-24,6-35.95q2.86-17.2,5.71-34.4,3.48-20.83,7-41.68,3-17.72,5.93-35.43,3.39-20.32,6.75-40.65c1.92-11.64,3.79-23.3,5.7-34.94,2.37-14.42,4.72-28.85,7.19-43.25a91.29,91.29,0,0,1,3-13.36c3.64-11,15.78-21.18,29.53-21.27,11.49-.06,23,0,34.48-.1a18,18,0,0,0,5.2-.58A6.17,6.17,0,0,0,484.42,95.86ZM149.89,485.11c-14.66.68-26.89-12.85-26.54-27.52.26-10.79,9.8-25.73,26.94-25.66,15.63.06,26.63,13.5,26.56,27.14C176.79,471.36,165.86,485.83,149.89,485.11Zm134.24,0c-14,.52-26.41-10.78-26.64-26.92A26.39,26.39,0,0,1,284.37,432c14.48,0,26.46,10.79,26.67,27C311.23,473.2,298.77,485.76,284.13,485.11ZM165,145.94c15.8-15.8,39.28-25.53,61.62-25.53,48.86,0,85,39.94,87.16,87.16,1,21.71-10.41,46.51-25.53,61.63-15.8,15.8-39.28,25.52-61.63,25.52-48.86,0-85-39.93-87.15-87.15C138.46,185.86,149.84,161.06,165,145.94ZM357.65,373.63a9,9,0,0,1-.72.65,1.16,1.16,0,0,1-.5.18c-1.05.07-2.1.18-3.16.18H105.47Q77.29,284.1,49.33,194.3c4-1,69-1.31,79.38-.42a31,31,0,0,1,0,4c-2.32,18.23,1.3,35.53,9,51.9,9.74,20.66,25.21,36,45.68,46.18a99.57,99.57,0,0,0,82.49,2c19.36-8.4,34.4-21.94,45.45-39.87a95.8,95.8,0,0,0,13.47-38.65c.83-6.62.31-13.41.39-20.12,0-1.73,0-3.46,0-5.48h61.44a3.18,3.18,0,0,1,.42.46.86.86,0,0,1,.15.5Q372.42,284.37,357.65,373.63Z"/><path class="cls-1" d="M216.82,61.25c0-10.4,0-20.81,0-31.21,0-3.07.78-5.52,3.91-6.78s6.58-.22,7.86,3a14.16,14.16,0,0,1,.93,5.12q.11,30.42,0,60.83a13.36,13.36,0,0,1-.87,4.6,6,6,0,0,1-6.24,3.83,6.08,6.08,0,0,1-5.4-5,22.79,22.79,0,0,1-.2-4.22Q216.82,76.32,216.82,61.25Z"/><path class="cls-1" d="M188.24,68.38c0-7.93,0-15.87,0-23.8,0-5.31,2.2-8.09,6.2-8.19s6.48,2.92,6.5,8q.09,24.06,0,48.13a11.61,11.61,0,0,1-.79,4.08,6.19,6.19,0,0,1-6.08,4.16,6.41,6.41,0,0,1-5.71-5.4,21.62,21.62,0,0,1-.14-3.69Q188.22,80,188.24,68.38Z"/><path class="cls-1" d="M247.52,68.15c0-7.75,0-15.51,0-23.27,0-5.68,2.29-8.65,6.34-8.5s6.31,3.22,6.36,8.76c.06,8.64,0,17.28,0,25.92,0,6.7.06,13.41-.05,20.1a19.83,19.83,0,0,1-.9,5.68,6.12,6.12,0,0,1-5.71,4,6.27,6.27,0,0,1-5.9-5.14,26.94,26.94,0,0,1-.16-4.22Q247.52,79.79,247.52,68.15Z"/><path class="cls-1" d="M178.74,79.34c0,6.88,0,13.76,0,20.64,0,5-2.55,8.17-6.32,8.21S166,105,166,100.08q-.06-20.89,0-41.8a14.25,14.25,0,0,1,.87-4.59,5.26,5.26,0,0,1,5.38-3.48c2.41,0,4.59.95,5.47,3.39a15.87,15.87,0,0,1,.93,5.11c.1,6.87,0,13.75,0,20.63Z"/><path class="cls-1" d="M268.69,79.34q0-9.78,0-19.57c0-1.05-.05-2.11,0-3.17.29-3.82,2.43-6.22,5.7-6.45s5.77,1.83,6.62,5.54a18.79,18.79,0,0,1,.34,4.18c0,12.69.05,25.38,0,38.07a22,22,0,0,1-.73,5.72,6,6,0,0,1-6.33,4.41c-3.22-.48-5.13-2.28-5.5-5.47a48.86,48.86,0,0,1-.13-5.28C268.68,91.33,268.69,85.33,268.69,79.34Z"/></g><path class="cls-1" d="M227.23,306.56c-54.61-.34-98.86-45.1-98.51-99.65s45.07-98.71,99.51-98.33a98.94,98.94,0,0,1,98.5,99.62C326.37,263.22,281.6,306.6,227.23,306.56Zm92-98.46c-.22-51-40.61-91.53-90.93-91.85a91.31,91.31,0,1,0-1.09,182.61C277.47,299.12,318.34,259.27,319.21,208.1Z"/><path class="cls-1" d="M227.28,282.26a74.7,74.7,0,1,1,53-21.57,74.24,74.24,0,0,1-53,21.57Zm.82-140.07a65.37,65.37,0,1,0,65,65.75A65.45,65.45,0,0,0,228.1,142.19Z"/><path class="cls-2" d="M247.14,212.07q-6.12-5.4-17.95-8.68-8.25-2.61-11.61-4.94a7,7,0,0,1-3.37-6,7.76,7.76,0,0,1,3.22-6.41q3.21-2.47,9.11-2.48a32.2,32.2,0,0,1,7.61.88,19,19,0,0,1,5.45,2.07l1.86,9.81h10.76V181.73a34.62,34.62,0,0,0-11.39-6.67,40.37,40.37,0,0,0-9.95-2.24V160.33H222.3v12.43a29.13,29.13,0,0,0-15,5.47q-7.36,5.52-7.36,14.21t6.53,13.85q6.53,5.06,19.25,8.73c4.87,1.47,8.29,3,10.23,4.71a8.3,8.3,0,0,1,2.93,6.63,7.76,7.76,0,0,1-3.07,6.43c-2.05,1.61-5,2.41-9,2.41a27.74,27.74,0,0,1-8.27-1.15,17.29,17.29,0,0,1-5.87-2.92L211.18,221h-11.1v14.92a31.44,31.44,0,0,0,11.42,7.46,39,39,0,0,0,10.81,2.49v9.9h8.57v-9.88c6.07-.51,11.12-2.2,15.11-5.11a17,17,0,0,0,7.26-14.49A18,18,0,0,0,247.14,212.07Z"/></svg>