<svg id="Capa_1" data-name="Capa 1" xmlns="http://www.w3.org/2000/svg" viewBox="0 0 215 215"><defs><style>.cls-1{fill:#fff;}</style></defs><title>export iconos cv</title><g id="xqHrDS.tif"><path class="cls-1" d="M145.48,79.88c3.94,0,7.65-.14,11.35,0A32,32,0,0,1,187,111.06c.08,5.48.05,11,0,16.45a8.16,8.16,0,0,1-8,8.26,8,8,0,0,1-8-8.25c0-4.8,0-9.6,0-14.4,0-10.56-6.65-17.23-17.25-17.32-5.86,0-11.73,0-17.59,0q-47.29,0-94.58,0c-5.81,0-10.77,1.65-14.41,6.4a16.12,16.12,0,0,0-3.3,10c0,21.55-.06,43.1,0,64.65,0,9.79,7,16.48,16.9,16.5q30.72,0,61.45,0c3,0,5.39.87,7.14,3.28a7.36,7.36,0,0,1,.79,8.17,8,8,0,0,1-6.88,4.55c-.53,0-1.06,0-1.6,0q-30.5,0-61,0c-17.12,0-30.49-11.72-32.71-28.64a33,33,0,0,1-.13-4.34q0-31.76,0-63.51c0-16.9,10.67-29.78,27.3-32.66,3.49-.6,7.13-.31,10.71-.41,1.11,0,2.23,0,3.57,0V77.05c0-8.23.09-16.45,0-24.67C49.11,22.61,76.74-.51,107.24,5.6c22.57,4.52,38.16,23.79,38.23,46.79,0,8.23,0,16.45,0,24.68ZM66,79.6h63.36c0-10.29,0-20.4,0-30.51a17.85,17.85,0,0,0-.47-3.39c-3.08-14.83-16.36-25.26-31.91-25.07-15.28.18-29,11-30.72,26C65,57.4,66,68.45,66,79.6Z"/><path class="cls-1" d="M153.15,209.31c-3.24-.08-8-1.77-11.8-5.48q-12.73-12.3-25.38-24.69c-3.63-3.56-3.83-8.27-.66-11.6s8.07-3.44,11.79.14c8,7.71,16,15.5,23.92,23.25,3.64,3.54,5.91,3.31,8.87-.82q18.93-26.46,37.88-52.91c2.26-3.15,5.37-4.41,8.7-3.56a7.62,7.62,0,0,1,6.05,6.4c.5,2.74-.63,5-2.19,7.21Q194.15,169.78,178,192.33c-2.13,3-4.23,6-6.4,8.9C167.89,206.26,161.41,209.45,153.15,209.31Z"/><path class="cls-1" d="M52.65,150.92a7.92,7.92,0,0,1-7.93-8,8,8,0,1,1,16,.1A7.91,7.91,0,0,1,52.65,150.92Z"/><path class="cls-1" d="M82.74,150.92a8,8,0,0,1-8.07-7.85,8.13,8.13,0,0,1,8.09-8.13,8,8,0,0,1,7.91,8A7.88,7.88,0,0,1,82.74,150.92Z"/><path class="cls-1" d="M112.64,150.92a7.84,7.84,0,0,1-7.91-7.95,8,8,0,0,1,7.89-8,8.13,8.13,0,0,1,8.09,8.13A8,8,0,0,1,112.64,150.92Z"/><path class="cls-1" d="M143,150.92a8,8,0,0,1-7.92-8,8.14,8.14,0,0,1,8-8,8,8,0,0,1,8,8.19A7.86,7.86,0,0,1,143,150.92Z"/></g></svg>