<svg id="Capa_1" data-name="Capa 1" xmlns="http://www.w3.org/2000/svg" viewBox="0 0 215 215"><defs><style>.cls-1{fill:#fff;}</style></defs><title>export iconos cv</title><g id="GljOFX.tif"><path class="cls-1" d="M187.49,122q0,27,0,53.93c0,8.4-3.95,14.2-11.57,17.43a16.79,16.79,0,0,1-6.43,1.26q-43.69.13-87.41,0A18,18,0,0,1,64,176.55Q63.9,122,64,67.34A18.45,18.45,0,0,1,82.72,49.27c25.17.21,50.35.07,75.53.07,4,0,8.05-.06,12.07.06a17.6,17.6,0,0,1,17.1,17.11c.14,18.49,0,37,0,55.48Zm-7.14.14q0-26.56,0-53.14c0-8-4.46-12.49-12.37-12.5q-42.24,0-84.47,0c-2.83,0-5.56.44-7.88,2.27-3.21,2.54-4.35,5.87-4.34,9.91q.07,53.22,0,106.46a7.43,7.43,0,0,0,.1,2.32,22.38,22.38,0,0,0,2.28,5.64c2.21,3.26,5.6,4.27,9.49,4.26q42.63-.08,85.25,0a9.5,9.5,0,0,0,2.14-.09,16.16,16.16,0,0,0,3.86-1.18c4.39-2.31,5.93-6.24,5.92-11Q180.34,148.59,180.35,122.13Z"/><path class="cls-1" d="M27.68,96.55c0-19.21.13-38.42-.05-57.62A18.34,18.34,0,0,1,41.28,20.82a22.12,22.12,0,0,1,5.2-.59q42.92-.06,85.85,0c9.83,0,17.1,6.17,18.7,15.8a12.11,12.11,0,0,1,.14,1.35c.13,2.7-1.16,4.46-3.37,4.62s-3.69-1.46-4-4.14c-.64-6.37-4.78-10.27-11.19-10.28q-43.21,0-86.43,0c-6.94,0-11.33,4.62-11.37,11.81,0,9.41,0,18.82,0,28.23q0,42.83,0,85.65c0,4.75,1.49,8.74,5.92,11A14.8,14.8,0,0,0,46,165.47c2.19.21,4.41,0,6.61.07,2.53.09,4.09,1.61,4,3.78s-1.61,3.54-4.06,3.52a69.27,69.27,0,0,1-9.89-.37,17.45,17.45,0,0,1-14.9-17.14c-.12-19.59,0-39.19,0-58.78Z"/><path class="cls-1" d="M125.79,85.63q-14.22,0-28.42,0a3.85,3.85,0,0,1-3.78-1.9c-.72-1.34-.81-2.9.29-3.77A7.2,7.2,0,0,1,98,78.39c11.16-.12,22.32-.07,33.48-.07h22.39c3.66,0,5.62,2.75,4,5.53-.9,1.55-2.41,1.79-4,1.79Z"/><path class="cls-1" d="M125.75,107.43c9.47,0,18.94,0,28.42,0,3.48,0,5.33,2.88,3.65,5.58-.94,1.51-2.49,1.73-4.1,1.73H97.86c-1.68,0-3.28-.24-4.22-1.86-1.46-2.49.22-5.3,3.3-5.43,2.26-.1,4.54,0,6.81,0Z"/><path class="cls-1" d="M125.74,172.87H97.51c-1.62,0-3.09-.33-3.94-1.94-.71-1.35-.76-2.91.34-3.77a7.29,7.29,0,0,1,4.15-1.53c15.38-.11,30.76-.07,46.14-.07,3.31,0,6.62-.05,9.92,0,3.5.05,5.52,3,3.64,5.51a5.43,5.43,0,0,1-3.8,1.72C144.55,172.93,135.14,172.87,125.74,172.87Z"/><path class="cls-1" d="M125.7,143.76c-9.34,0-18.69.06-28-.08a5.67,5.67,0,0,1-3.86-1.6c-1.67-2-.38-4.83,2.16-5.41a6.63,6.63,0,0,1,1.54-.12c18.81,0,37.63,0,56.44,0a5.58,5.58,0,0,1,3.5,1.23,3.44,3.44,0,0,1-1.63,5.72,9.43,9.43,0,0,1-2.5.21Z"/></g></svg>