<svg id="Capa_1" data-name="Capa 1" xmlns="http://www.w3.org/2000/svg" viewBox="0 0 215 215"><defs><style>.cls-1{fill:#fff;}</style></defs><title>export iconos cv</title><g id="Line"><path class="cls-1" d="M176.2,42.92H38.79a9.36,9.36,0,0,0-9.36,9.37v109.3A9.36,9.36,0,0,0,38.79,171H176.2a9.37,9.37,0,0,0,9.37-9.36V52.29A9.37,9.37,0,0,0,176.2,42.92ZM35.67,161.59V52.29a3.12,3.12,0,0,1,3.12-3.12H66.9V164.71H38.79A3.12,3.12,0,0,1,35.67,161.59Zm143.65,0a3.12,3.12,0,0,1-3.12,3.12H73.14V49.17H176.2a3.12,3.12,0,0,1,3.12,3.12ZM41.92,64.78A3.12,3.12,0,0,1,45,61.66H57.53a3.12,3.12,0,0,1,0,6.24H45A3.12,3.12,0,0,1,41.92,64.78ZM60.65,83.52a3.12,3.12,0,0,1-3.12,3.12H45a3.13,3.13,0,0,1,0-6.25H57.53A3.12,3.12,0,0,1,60.65,83.52Zm0,18.73a3.12,3.12,0,0,1-3.12,3.13H45a3.13,3.13,0,0,1,0-6.25H57.53A3.12,3.12,0,0,1,60.65,102.25Zm0,18.74a3.12,3.12,0,0,1-3.12,3.12H45a3.12,3.12,0,0,1,0-6.24H57.53A3.11,3.11,0,0,1,60.65,121ZM163.71,61.66H88.76a3.11,3.11,0,0,0-3.12,3.12v53.09A3.12,3.12,0,0,0,88.76,121h75a3.12,3.12,0,0,0,3.12-3.12V64.78A3.12,3.12,0,0,0,163.71,61.66ZM91.88,67.9h50v46.84h-50Zm68.7,46.84H148.09V67.9h12.49ZM107.5,127.23H88.76a3.12,3.12,0,0,0-3.12,3.13v18.73a3.12,3.12,0,0,0,3.12,3.13H107.5a3.13,3.13,0,0,0,3.12-3.13V130.36A3.13,3.13,0,0,0,107.5,127.23ZM104.37,146H91.88V133.48h12.49Zm34.35-18.74H120a3.13,3.13,0,0,0-3.13,3.13v18.73a3.13,3.13,0,0,0,3.13,3.13h18.73a3.13,3.13,0,0,0,3.13-3.13V130.36A3.13,3.13,0,0,0,138.72,127.23ZM135.6,146H123.11V133.48H135.6Zm28.11-18.74h-12.5a3.13,3.13,0,0,0-3.12,3.13v18.73a3.13,3.13,0,0,0,3.12,3.13h12.5a3.13,3.13,0,0,0,3.12-3.13V130.36A3.13,3.13,0,0,0,163.71,127.23ZM160.58,146h-6.24V133.48h6.24Z"/></g></svg>