<svg id="Capa_1" data-name="Capa 1" xmlns="http://www.w3.org/2000/svg" viewBox="0 0 215 215"><defs><style>.cls-1{fill:#fff;}</style></defs><title>export iconos cv</title><path class="cls-1" d="M107,215.08a107,107,0,1,1,107-107A107.12,107.12,0,0,1,107,215.08ZM107,9a99.07,99.07,0,1,0,99.06,99.06A99.18,99.18,0,0,0,107,9Z"/><path class="cls-1" d="M138.13,110q-9.25-8.19-27.2-13.18-12.5-3.94-17.6-7.48t-5.1-9a11.69,11.69,0,0,1,4.88-9.71q4.88-3.76,13.8-3.76a47.72,47.72,0,0,1,11.54,1.34,28.83,28.83,0,0,1,8.26,3.12l2.83,14.89h16.3V64a52.57,52.57,0,0,0-17.27-10.12,61.33,61.33,0,0,0-15.09-3.4V31.51h-13V50.36C91.57,51.22,84,54,77.74,58.64Q66.57,67,66.57,80.18q0,13.33,9.9,21t29.18,13.25q11.09,3.35,15.51,7.15a12.55,12.55,0,0,1,4.43,10,11.76,11.76,0,0,1-4.65,9.75Q116.29,145,107.36,145a41.9,41.9,0,0,1-12.54-1.75,26.22,26.22,0,0,1-8.9-4.43l-2.3-15.4H66.8v22.62a47.66,47.66,0,0,0,17.3,11.31,58.82,58.82,0,0,0,16.39,3.78v15h13v-15q13.81-1.17,22.9-7.76,11-8,11-22Q147.4,118.14,138.13,110Z"/></svg>