<svg id="Capa_1" data-name="Capa 1" xmlns="http://www.w3.org/2000/svg" viewBox="0 0 520 520"><defs><style>.cls-1{fill:#fff;}</style></defs><title>envio</title><g id="_2yR0XJ.tif" data-name="2yR0XJ.tif"><path class="cls-1" d="M382.69,421.79C289,444.59,194,386.86,171.28,293.28c-22.69-93.36,34.94-188.4,128.36-211,93.65-22.71,188.41,34,211.36,128.46S475.84,398.59,382.69,421.79Zm115.4-208C475.87,126.43,389.34,74.36,303,95.35a161.22,161.22,0,1,0,76.31,313.27C465.56,387.55,518.5,301.78,498.09,213.76Z"/><path class="cls-1" d="M372.38,380.14a131.9,131.9,0,1,1,81.47-59.62,131,131,0,0,1-81.47,59.62ZM313.81,139.86a115.42,115.42,0,1,0,139.47,84.8A115.54,115.54,0,0,0,313.81,139.86Z"/><path class="cls-1" d="M376.45,252.31q-12.61-7.38-34.55-9.08-15.39-1.72-22.12-4.66t-8-9.32a13.87,13.87,0,0,1,3.44-12.38q4.8-5.48,15.15-7.51a57.19,57.19,0,0,1,13.69-1.07A34.11,34.11,0,0,1,354.38,210l6.67,16.62L380,222.93l-5.06-25.72a62.07,62.07,0,0,0-22.33-7.8,72.37,72.37,0,0,0-18.27-.51L330,167l-15.07,3,4.3,21.86q-15.22,4.54-24.5,14.79-11,12.25-8,27.54,3,15.45,16.26,22.08t36.86,8.71q13.62,1.35,19.62,4.75a14.87,14.87,0,0,1,7.43,10.64,13.91,13.91,0,0,1-3.18,12.37q-4.56,5.3-14.92,7.32a49.76,49.76,0,0,1-14.94.84,31.22,31.22,0,0,1-11.32-3.11l-6.19-17.34-19.51,3.83L302,310.43a56.69,56.69,0,0,0,22.65,9.18,70.34,70.34,0,0,0,19.87.64l3.42,17.4,15.07-3-3.42-17.36c10.5-3,18.79-7.73,24.79-14.22q10.95-11.83,7.77-28Q389.07,259.69,376.45,252.31Z"/><path class="cls-1" d="M8.66,336.15a9.69,9.69,0,0,1,2.74-17.7l159.81-38.94a9.69,9.69,0,0,1,4.59,18.83h0L16,337.29A9.66,9.66,0,0,1,8.66,336.15Z"/><path class="cls-1" d="M110.66,233.7A9.7,9.7,0,0,1,113.4,216L160,204.64a9.69,9.69,0,1,1,4.59,18.83L118,234.83A9.72,9.72,0,0,1,110.66,233.7Z"/><path class="cls-1" d="M64.05,245.06a9.7,9.7,0,0,1,2.74-17.7l20-4.87a9.69,9.69,0,1,1,4.59,18.83l-20,4.87A9.72,9.72,0,0,1,64.05,245.06Z"/><path class="cls-1" d="M38.87,286.46a9.7,9.7,0,0,1,2.74-17.7l86.57-21.09a9.69,9.69,0,0,1,4.59,18.83L46.2,287.6A9.67,9.67,0,0,1,38.87,286.46Z"/><path class="cls-1" d="M133.22,355.18a9.69,9.69,0,0,1,2.74-17.7l53.27-13a9.7,9.7,0,0,1,4.59,18.84l-53.27,13A9.7,9.7,0,0,1,133.22,355.18Z"/><path class="cls-1" d="M124.6,406.65A9.68,9.68,0,0,1,127.34,389l66.59-16.23a9.69,9.69,0,0,1,4.59,18.83l-66.59,16.23A9.67,9.67,0,0,1,124.6,406.65Z"/><path class="cls-1" d="M93.26,364.91A9.7,9.7,0,0,1,96,347.21L109.32,344a9.69,9.69,0,1,1,4.59,18.83l-13.31,3.25A9.69,9.69,0,0,1,93.26,364.91Z"/></g></svg>