<svg id="Capa_1" data-name="Capa 1" xmlns="http://www.w3.org/2000/svg" viewBox="0 0 215 215"><defs><style>.cls-1{fill:#5e4899;}</style></defs><title>export iconos cv</title><g id="lGrF5u.tif"><path class="cls-1" d="M121.89,202.57H67.54a14.73,14.73,0,0,1-11-4.73A15,15,0,0,1,52.41,187V158.25c0-3.19,0-2.76-2.84-2.77-8.37,0-16.73-.07-25.1,0A11.67,11.67,0,0,1,13,147a11.89,11.89,0,0,1-.37-2.9q0-23.46,0-46.91c0-1.21.21-2.42.23-3.63a35.08,35.08,0,0,0-.12-4.47,7.63,7.63,0,0,1,.93-4.33,11.19,11.19,0,0,1,10.48-6.7c8.53-.11,17.07,0,25.61,0,2.61,0,2.69.34,2.69-2.59q0-23.46,0-46.92a15.14,15.14,0,0,1,2.16-8.25,14.79,14.79,0,0,1,13.09-7.38c18.75,0,37.5,0,56.25,0,4.79,0,9.58.05,14.37,0a5.87,5.87,0,0,1,4.58,2q17.23,18,34.53,35.91c4.08,4.24,8.14,8.5,12.25,12.71a5.73,5.73,0,0,1,1.73,4.33c0,11.65,0,23.31,0,35v13q0,35.66,0,71.3a15.21,15.21,0,0,1-15.47,15.59h-54ZM61.17,78h60.29a11.61,11.61,0,0,1,12,12q0,11.76,0,23.54,0,15,0,30.11a11.27,11.27,0,0,1-4.58,9.43,11.62,11.62,0,0,1-7.26,2.36q-29.07,0-58.15,0c-.73,0-1.45.07-2.23.11-.06.56-.15.95-.16,1.34,0,10.21,0,20.42,0,30.64a6.27,6.27,0,0,0,5.23,6.2,14.85,14.85,0,0,0,2.75.19h105.4c.58,0,1.16,0,1.73,0a6.56,6.56,0,0,0,6.59-6.8c0-3.11.09-6.23.09-9.34q0-27.26-.07-54.52c0-2.59.25-5.18.24-7.77,0-4.09-.21-8.17-.24-12.26s.07-8.31.07-12.46c0-5.31-.06-10.61-.08-15.92,0-2.72,0-2.72-2.79-2.73H139.32c-1,0-2,0-2.94,0A4.24,4.24,0,0,1,132.12,68c-.06-.63,0-1.27,0-1.9V23.52c0-2-.1-2.06-2.05-2.06-20.66,0-41.31,0-62,0A6.94,6.94,0,0,0,61,28.49c.11,15.86,0,31.73,0,47.6C61.05,76.65,61.12,77.21,61.17,78Zm11.74,8.63H25.13c-2.89,0-4,1.07-4,3.93-.08,8.54-.19,17.08-.2,25.61,0,3.46.25,6.91.27,10.36,0,5.36-.05,10.73-.07,16.1a8.11,8.11,0,0,0,.13,1.71A2.89,2.89,0,0,0,24,146.84a10.55,10.55,0,0,0,1.38,0h90c1.9,0,3.81-.09,5.71,0a3.34,3.34,0,0,0,3.79-3.81c-.08-.92,0-1.85,0-2.77.08-7.09.18-14.18.21-21.27,0-2.92-.18-5.85-.21-8.77,0-1.67.19-3.34.18-5,0-5-.12-9.91-.18-14.87v-.35c-.07-2.2-1.11-3.27-3.31-3.37-.92,0-1.84,0-2.76,0ZM140.8,63.24c2,.44,35,.35,36.4-.14-.44-.51-.82-1-1.23-1.42q-8.7-9-17.39-18.08-8-8.35-16.07-16.7c-.45-.46-.79-1.15-1.71-1.12Z"/><path class="cls-1" d="M27.59,129.84V103H47.23v5.51H34.3v5.16H44.7v5.46H34.3v5.24H47.23v5.5Z"/><path class="cls-1" d="M57,129.84H49.55l9.25-13.45-9-13.42h7.7l5.42,8.73L68.47,103h7.61L67,116.13l9.33,13.71H68.55l-5.72-9.16Z"/><path class="cls-1" d="M79.59,129.84V103H99.25v5.51h-13v5.16H96.71v5.46H86.3v5.24h13v5.5Z"/><path class="cls-1" d="M103.88,129.84V103h6.84v21.16H122v5.71Z"/></g></svg>