<svg id="Capa_1" data-name="Capa 1" xmlns="http://www.w3.org/2000/svg" viewBox="0 0 215 215"><defs><style>.cls-1{fill:#5e4899;}</style></defs><title>export iconos cv</title><g id="lGrF5u.tif"><path class="cls-1" d="M127.41,202.57H73.06a14.75,14.75,0,0,1-11-4.73A15,15,0,0,1,57.92,187q0-14.37,0-28.73c0-3.19,0-2.76-2.84-2.77-8.37,0-16.74-.07-25.1,0A11.66,11.66,0,0,1,18.52,147a11.42,11.42,0,0,1-.37-2.9q0-23.46,0-46.91c0-1.21.21-2.42.23-3.63a33.33,33.33,0,0,0-.12-4.47,7.63,7.63,0,0,1,.94-4.33,11.19,11.19,0,0,1,10.47-6.7c8.54-.11,17.08,0,25.62,0,2.61,0,2.68.34,2.68-2.59q0-23.46,0-46.92a15.14,15.14,0,0,1,2.16-8.25,14.77,14.77,0,0,1,13.09-7.38c18.75,0,37.5,0,56.25,0,4.79,0,9.58.05,14.37,0a5.83,5.83,0,0,1,4.57,2q17.25,18,34.54,35.91C187,55,191,59.22,195.16,63.43a5.77,5.77,0,0,1,1.73,4.33c0,11.65,0,23.31,0,35,0,4.33,0,8.65,0,13q0,35.66,0,71.3a15.21,15.21,0,0,1-15.47,15.59h-54ZM66.69,78H127a11.61,11.61,0,0,1,12,12q0,11.76,0,23.54,0,15,0,30.11a11.27,11.27,0,0,1-4.58,9.43,11.62,11.62,0,0,1-7.26,2.36q-29.07,0-58.15,0c-.73,0-1.46.07-2.23.11a12.19,12.19,0,0,0-.16,1.34c0,10.21,0,20.42,0,30.64a6.26,6.26,0,0,0,5.23,6.2,14.79,14.79,0,0,0,2.75.19H180c.57,0,1.15,0,1.73,0a6.55,6.55,0,0,0,6.58-6.8c.05-3.11.1-6.23.09-9.34q0-27.26-.06-54.52c0-2.59.25-5.18.23-7.77,0-4.09-.21-8.17-.24-12.26s.07-8.31.07-12.46c0-5.31-.05-10.61-.07-15.92,0-2.72,0-2.72-2.79-2.73H144.83c-1,0-2,0-2.94,0A4.25,4.25,0,0,1,137.63,68c0-.63,0-1.27,0-1.9q0-21.3,0-42.58c0-2-.09-2.06-2-2.06-20.65,0-41.3,0-62,0a6.93,6.93,0,0,0-7.07,7.06c.11,15.86,0,31.73,0,47.6C66.57,76.65,66.63,77.21,66.69,78Zm11.73,8.63H30.65c-2.89,0-4,1.07-4,3.93-.08,8.54-.18,17.08-.2,25.61,0,3.46.26,6.91.28,10.36,0,5.36-.05,10.73-.07,16.1a7.5,7.5,0,0,0,.13,1.71,2.88,2.88,0,0,0,2.73,2.47,10.61,10.61,0,0,0,1.38,0h90c1.91,0,3.81-.09,5.71,0a3.34,3.34,0,0,0,3.79-3.81c-.08-.92,0-1.85,0-2.77.07-7.09.18-14.18.21-21.27,0-2.92-.18-5.85-.21-8.77,0-1.67.18-3.34.17-5,0-5-.11-9.91-.17-14.87v-.35c-.08-2.2-1.11-3.27-3.31-3.37-.92,0-1.85,0-2.77,0Zm67.89-23.42c2,.44,35,.35,36.41-.14-.44-.51-.82-1-1.24-1.42q-8.68-9-17.39-18.08-8-8.35-16.07-16.7c-.44-.46-.78-1.15-1.71-1.12Z"/><path class="cls-1" d="M68.4,101.56a102.13,102.13,0,0,1,16.31,0,7.74,7.74,0,0,1,5.39,2.41c.68.76,1.64,1.25,2.33,2a11.08,11.08,0,0,1,2.48,6.16c.25,1.65.58,3.3.73,5A17,17,0,0,1,92.5,129a10.86,10.86,0,0,1-7.22,4.35,29.94,29.94,0,0,1-4.64.38c-3.52.06-7,0-10.56,0-1.53,0-1.75-.2-1.75-1.67,0-6.12-.11-12.24,0-18.35.07-3.38-.22-6.76,0-10.13C68.34,103,68.37,102.35,68.4,101.56Zm11.26,25.59v-.09a26,26,0,0,0,2.93,0,4.76,4.76,0,0,0,3.91-2.21A12.8,12.8,0,0,0,88,119a24.41,24.41,0,0,0-.6-6c-.75-3.94-3.17-4.88-6.67-5.29a20.6,20.6,0,0,0-2.93.1c-1.73,0-1.82.14-1.88,1.89-.08,2.53-.21,5.06-.31,7.59,0,.69,0,1.38,0,2.07.08,1.38.18,2.76.26,4.13,0,.46,0,.93,0,1.39,0,2.23,0,2.23,2.15,2.23Z"/><path class="cls-1" d="M39.93,101.67l1.5-.1c2.41-.11,4.83-.31,7.24-.3a65.38,65.38,0,0,1,8.29.36c4.17.54,7.43,4.45,7.28,8.2,0,1.09.18,2.18.13,3.27a6.2,6.2,0,0,1-.49,2.34c-1.41,3.06-3.52,5.41-7,6.11a24,24,0,0,1-3.78.39c-1.67.08-3.34,0-5,0-1.33,0-1.42.15-1.36,1.5q.18,4.32.24,8.64c0,1.44-.17,1.59-1.58,1.61s-3.11,0-4.67,0c-1.11,0-1.27-.23-1.36-1.34,0-.4,0-.81,0-1.21,0-6.23-.06-12.46,0-18.69,0-3.34.23-6.67.36-10A4.85,4.85,0,0,1,39.93,101.67Zm10.26,6.15v.08c-.8,0-1.6-.05-2.4-.12s-1.14.28-1.15,1c0,1.9,0,3.79,0,5.69a.9.9,0,0,0,1,1c1.9-.05,3.8-.05,5.69-.22a3.5,3.5,0,0,0,2.94-1.85,3.45,3.45,0,0,0-2.3-5.12A31.09,31.09,0,0,0,50.19,107.82Z"/><path class="cls-1" d="M99.81,101.41c.83-.06,1.44-.13,2.06-.14,2.42,0,4.85-.15,7.26,0,3.8.26,7.58-.21,11.37,0,1.85.09,1.94.14,2,2,0,1,0,2.08,0,3.12a1.12,1.12,0,0,1-1.24,1.3l-7.95.13c-1.6,0-3.21,0-4.81.11a1.3,1.3,0,0,0-1,.74,35.11,35.11,0,0,0-.26,4.46c0,.27.59.75.93.76,1.76.1,3.54.08,5.31.08,2,0,3.92,0,5.88,0A.93.93,0,0,1,120.4,115c0,.58-.08,1.15-.1,1.72a15.42,15.42,0,0,0,0,2c.17,1.42-.07,1.76-1.54,1.78-3,0-6,0-9,0-2.33,0-2.33,0-2.34,2.4,0,3,0,6,0,9,0,1.69-.1,1.79-1.74,1.81s-3,0-4.5,0c-1.17,0-1.36-.17-1.36-1.27,0-4.21.08-8.42.1-12.63,0-1.78-.13-3.57-.12-5.35,0-3.11.13-6.22.15-9.33C100,104,99.87,102.77,99.81,101.41Z"/></g></svg>