<svg id="Capa_1" data-name="Capa 1" xmlns="http://www.w3.org/2000/svg" viewBox="0 0 215 215"><defs><style>.cls-1{fill:#fff;}.cls-2{fill:#b79ef6;}</style></defs><title>export iconos cv</title><circle class="cls-1" cx="107.5" cy="107.5" r="106.47"/><path class="cls-2" d="M147.3,185.49a87.57,87.57,0,0,1-79.61,0V175.18a39.81,39.81,0,1,1,79.61,0ZM107.49,19.94A87.57,87.57,0,0,0,59.73,180.83v-5.65a47.79,47.79,0,0,1,28.94-43.79,45.78,45.78,0,1,1,37.65,0,47.79,47.79,0,0,1,28.94,43.79v5.65A87.57,87.57,0,0,0,107.49,19.94ZM145.31,89.6a37.82,37.82,0,1,0-37.82,37.81A37.81,37.81,0,0,0,145.31,89.6Z"/></svg>