<svg id="Capa_1" data-name="Capa 1" xmlns="http://www.w3.org/2000/svg" viewBox="0 0 215 215"><defs><style>.cls-1{fill:#fff;}</style></defs><title>export iconos cv</title><path class="cls-1" d="M45.36,173.26c-3.6,0-4.76-1-4.76-4.1V103L37,105.85l-.87.71c-.43.35-.79.64-1.16.9a3.88,3.88,0,0,1-2.23.7,3.78,3.78,0,0,1-2.54-1,2.75,2.75,0,0,1-.18-4.07,12.27,12.27,0,0,1,1-.91L103.9,38.83c1.48-1.28,2.65-1.91,3.59-1.91h0c1,0,2.12.63,3.6,1.91l13.74,12q29.55,25.68,59.11,51.36c1.52,1.32,2,2.16,1.85,3.22a3,3,0,0,1-2.31,2.58,3.91,3.91,0,0,1-1.31.24,3.61,3.61,0,0,1-2.1-.73c-.4-.28-.79-.58-1.26-.94l-4.42-3.36V169c0,3.24-1.12,4.22-4.8,4.22ZM129.41,117c3.56,0,4.69,1,4.69,4.16V167h32.79l.26-1.94a4.69,4.69,0,0,0,0-.58v-5.88q0-30.19,0-60.41a4.74,4.74,0,0,0-1.72-3.29q-24.58-21.42-49.21-42.81l-6-5.18c-.29-.25-.59-.5-.9-.74l-1.84-1.5L105.77,46c-.22.16-.37.28-.51.4l-6.21,5.39Q74.18,73.42,49.33,95.07a4.87,4.87,0,0,0-1.51,3.52q-.06,27.38,0,54.75v13.58H80.89V121c0-3,1.17-4,4.64-4h43.88Zm-41.2,49.94h38.64V123.35H88.21Z"/></svg>