<svg id="Capa_1" data-name="Capa 1" xmlns="http://www.w3.org/2000/svg" viewBox="0 0 215 215"><defs><style>.cls-1{fill:#fff;}</style></defs><title>export iconos cv</title><g id="XfhV0a.tif"><path class="cls-1" d="M94.82,193.78H16.4C6.73,193.78,0,187.05,0,177.33q0-49.5,0-99c0-9.71,6.67-16.48,16.37-16.49q48.21,0,96.41,0c3,0,4.42,1,4.42,3.14s-1.47,3.18-4.42,3.18H16.85c-6.78,0-10.52,3.73-10.52,10.5v98.27c0,6.87,3.76,10.6,10.71,10.61H172.21c7.67,0,11.26-3.56,11.27-11.32q0-28,0-56.09c0-.79-.27-1.82.11-2.34a6.47,6.47,0,0,1,2.92-2.58c1.51-.42,2.72.7,3.07,2.32a11.13,11.13,0,0,1,.16,2.38q0,28.53,0,57.05c0,10.32-6.59,16.82-17,16.82Z"/><path class="cls-1" d="M53.57,149.75c-6,0-12,0-18,0C25.48,149.7,19,143.15,19,133.09q0-18.09,0-36.19c0-9.39,6.78-16.19,16.14-16.2q18,0,36,0c9.88,0,16.62,5.88,16.87,15.7.33,12.93.24,25.88-.12,38.81-.22,8.12-7.14,14.3-15.3,14.54H53.57ZM77.9,141.5a9.25,9.25,0,0,0,3.75-7.8c0-12.07,0-24.13,0-36.2,0-6.76-3.75-10.54-10.5-10.55q-17.64,0-35.26,0C29,87,25.21,90.74,25.21,97.65q0,17.61,0,35.23a15.16,15.16,0,0,0,.24,3.09,7.68,7.68,0,0,0,3.61,5.4,26.73,26.73,0,0,1,13-15.1c-8.54-9-9.28-19.49-2.1-27.06a18.3,18.3,0,0,1,25.31-1.55,17.93,17.93,0,0,1,6.4,12.44c.52,6.51-2.06,11.77-7,16.16A26.65,26.65,0,0,1,77.9,141.5ZM65.47,111.91a12.06,12.06,0,0,0-24.11-.57,12.24,12.24,0,0,0,11.79,12.35A12.12,12.12,0,0,0,65.47,111.91Zm6.07,31.4C70,135.58,61.14,129.59,52.16,130c-7.69.37-16,7-16.71,13.29Z"/><path class="cls-1" d="M131.9,93.32a64.26,64.26,0,0,0-3.29-5.53,3.09,3.09,0,0,0-2.25-.81c-7-.06-14.06,0-21.09,0-3.06,0-4.47-1-4.51-3s1.57-3.2,4.66-3.2c5.83,0,11.66,0,17.5,0h2c-.41-5.83-1.3-11.46-1.1-17,.75-20.86,18.14-39.46,38.89-42,25.08-3.12,46.82,12.6,51.56,37.29,4.71,24.47-13.05,49.41-37.68,52.93-14.27,2-26.87-1.6-37.82-11a5.68,5.68,0,0,0-3.41-1.18c-9.83-.1-19.66-.06-29.49-.06a17.15,17.15,0,0,1-2.15,0,3.09,3.09,0,0,1,0-6.16,23,23,0,0,1,2.63,0Zm-2-26.57a39.22,39.22,0,0,0,39.21,39.36c21.62,0,39.44-17.55,39.45-38.94a39.33,39.33,0,1,0-78.66-.42Z"/><path class="cls-1" d="M94.75,162.38H24.51c-1,0-2.27.23-3.05-.24-1-.61-2.29-1.78-2.34-2.78s1.07-2.28,2-3c.63-.5,1.84-.35,2.79-.35H165.83a11.83,11.83,0,0,1,2.15.11c1.78.34,2.89,1.38,2.79,3.29a2.91,2.91,0,0,1-2.91,2.92,25.58,25.58,0,0,1-2.63.08Z"/><path class="cls-1" d="M94.85,168.6h70.72c3.71,0,5.16.87,5.22,3.11s-1.47,3.29-5.3,3.29Q94.9,175,24.3,175c-1.11,0-2.42.14-3.26-.39s-2-1.92-1.94-2.82a4.76,4.76,0,0,1,2.22-2.9c.76-.5,2-.28,3.05-.28Z"/><path class="cls-1" d="M135.78,137.2q-15.12,0-30.22,0c-.8,0-1.86.23-2.33-.18-1-.85-2.32-2.08-2.28-3.11s1.52-2.06,2.53-2.9c.39-.32,1.24-.13,1.88-.13h60.91a10.11,10.11,0,0,1,1.91.1c1.62.29,2.83,1.37,2.5,2.93a6.62,6.62,0,0,1-2.35,3.11c-.48.41-1.54.18-2.34.18Q150.89,137.22,135.78,137.2Z"/><path class="cls-1" d="M135.76,149.75h-30c-.8,0-1.8.24-2.36-.13-1-.69-2.48-1.76-2.49-2.67,0-1.1,1.15-2.39,2.12-3.25.51-.47,1.68-.26,2.55-.26q30.23,0,60.43,0a9,9,0,0,1,2.38.17,2.91,2.91,0,0,1,2.36,3.17,2.85,2.85,0,0,1-2.65,2.9,17.25,17.25,0,0,1-2.39.08Z"/><path class="cls-1" d="M163,78.61a17.58,17.58,0,0,1,1.69-2.6q9.69-9.76,19.46-19.48c2-2,3.68-2.24,5.18-.81s1.38,3.15-.63,5.17Q178.38,71.22,168,81.53c-3.51,3.48-7.45,3.44-10.94,0-2.56-2.52-5.08-5.09-7.64-7.6-1.48-1.46-1.78-3-.44-4.66s3.15-1.47,4.84.16C156.72,72.17,159.47,75.05,163,78.61Z"/></g></svg>