<svg id="Capa_1" data-name="Capa 1" xmlns="http://www.w3.org/2000/svg" viewBox="0 0 215 215"><defs><style>.cls-1{fill:#fff;}</style></defs><title>export iconos cv</title><g id="JZXY34.tif"><path class="cls-1" d="M207.63,34.06A2.79,2.79,0,0,0,205.14,33l-17.52.07a9.21,9.21,0,0,0-1.66.12,20.77,20.77,0,0,0-17.2,17.71c-.74,5.29-1.65,10.56-2.52,15.84-.28,1.76-.67,3.5-1,5.19H135.1a44.61,44.61,0,0,0-17.09-24,43.07,43.07,0,0,0-28.24-8.16C75.53,40.6,56.88,50.06,50,72.05H47.45q-18.12,0-36.23,0c-4.18,0-5.21,1.47-4,5.46q4.15,13.29,8.29,26.56Q24.26,132,33,159.92c1.27,4.09,1.55,4.3,5.79,4.3H147c.92,0,1.84,0,2.91,0-.1.94-.14,1.63-.25,2.31q-1.32,8-2.67,16.05c-.45,2.71-.88,5.43-1.4,8.14a2.67,2.67,0,0,1-2.72,2.46c-2.34.1-4.69,0-7,0-2.45-10.24-9.77-15-17.26-14.91-9.87.12-15.58,5.59-17.91,14.85H75.83a18,18,0,0,0-7.36-11.74A17,17,0,0,0,55,178.58c-9.29,1.81-14.12,10.23-14.25,16.9a17.86,17.86,0,0,0,14.85,17.81,17.57,17.57,0,0,0,11.41-2c4.89-2.6,7.59-6.92,8.8-12.26h25c2.32,8.82,8,14.22,17,14.38,9.52.17,15.45-5.28,17.95-14.47,2.39,0,4.67,0,7,0a8.57,8.57,0,0,0,8.35-6.71c.24-1.07.38-2.17.56-3.26.86-5.27,1.7-10.55,2.56-15.83s1.8-10.7,2.69-16.05l2.55-15.36q1.54-9.3,3.11-18.6,1.32-7.92,2.65-15.82,1.51-9.08,3-18.15c.86-5.2,1.69-10.4,2.55-15.6,1-6.43,2.1-12.88,3.21-19.31a40.13,40.13,0,0,1,1.33-6,14.6,14.6,0,0,1,13.19-9.49c5.13,0,10.26,0,15.39,0a8.14,8.14,0,0,0,2.32-.26A2.75,2.75,0,0,0,207.63,34.06ZM58.29,207.84c-6.55.3-12-5.74-11.85-12.29a11.95,11.95,0,0,1,23.88.66C70.29,201.7,65.41,208.16,58.29,207.84Zm59.92,0c-6.23.23-11.79-4.81-11.89-12a12,12,0,1,1,11.89,12ZM65,56.42A40.14,40.14,0,0,1,92.52,45c21.82,0,38,17.83,38.91,38.91.44,9.69-4.65,20.77-11.39,27.52a40.18,40.18,0,0,1-27.52,11.39c-21.81,0-38-17.83-38.91-38.91C53.18,74.24,58.26,63.17,65,56.42Zm86,101.65a2.79,2.79,0,0,1-.33.29.53.53,0,0,1-.22.08c-.47,0-.94.08-1.41.08H38.45Q25.86,118.09,13.39,78c1.77-.44,30.82-.58,35.44-.19a14.93,14.93,0,0,1,0,1.77,41.31,41.31,0,0,0,4,23.17,43.89,43.89,0,0,0,39.29,25.07,43.35,43.35,0,0,0,17.93-3.56,44.1,44.1,0,0,0,20.29-17.8,42.82,42.82,0,0,0,6-17.25,81.42,81.42,0,0,0,.18-9c0-.78,0-1.55,0-2.45H164a1.63,1.63,0,0,1,.19.21.43.43,0,0,1,.06.22C159.83,104.88,155.42,131.55,151,158.07Z"/><path class="cls-1" d="M88.17,18.61c0-4.64,0-9.29,0-13.93a2.82,2.82,0,0,1,1.74-3A2.55,2.55,0,0,1,93.42,3a6.58,6.58,0,0,1,.41,2.29q0,13.58,0,27.16a5.78,5.78,0,0,1-.39,2,2.65,2.65,0,0,1-2.78,1.71A2.71,2.71,0,0,1,88.26,34a9.8,9.8,0,0,1-.09-1.88C88.16,27.58,88.17,23.1,88.17,18.61Z"/><path class="cls-1" d="M75.4,21.79c0-3.54,0-7.08,0-10.62,0-2.37,1-3.62,2.77-3.66s2.89,1.3,2.9,3.57q0,10.74,0,21.49a5.16,5.16,0,0,1-.35,1.82A2.76,2.76,0,0,1,78,36.24a2.85,2.85,0,0,1-2.55-2.41,9,9,0,0,1-.06-1.65Q75.4,27,75.4,21.79Z"/><path class="cls-1" d="M101.87,21.69c0-3.46,0-6.92,0-10.39,0-2.54,1-3.86,2.82-3.79s2.82,1.44,2.84,3.91c0,3.86,0,7.71,0,11.57,0,3,0,6,0,9a8.74,8.74,0,0,1-.4,2.53,2.72,2.72,0,0,1-2.55,1.76A2.8,2.8,0,0,1,102,34a11.91,11.91,0,0,1-.08-1.89Z"/><path class="cls-1" d="M71.16,26.69c0,3.07,0,6.14,0,9.21,0,2.22-1.14,3.65-2.82,3.67S65.49,38.16,65.48,36q0-9.33,0-18.66a6.26,6.26,0,0,1,.39-2,2.35,2.35,0,0,1,2.4-1.56,2.38,2.38,0,0,1,2.44,1.52,7,7,0,0,1,.42,2.27c0,3.07,0,6.15,0,9.22Z"/><path class="cls-1" d="M111.32,26.69V18c0-.47,0-.94,0-1.41a2.76,2.76,0,0,1,2.54-2.88,2.81,2.81,0,0,1,3,2.47A8.25,8.25,0,0,1,117,18c0,5.67,0,11.34,0,17a9.54,9.54,0,0,1-.32,2.55,2.65,2.65,0,0,1-2.82,2,2.6,2.6,0,0,1-2.46-2.44,20.61,20.61,0,0,1-.06-2.36Z"/></g><path class="cls-1" d="M92.81,128.13a44.2,44.2,0,1,1,44.42-43.92A44.31,44.31,0,0,1,92.81,128.13Zm41.07-44A40.82,40.82,0,1,0,92.8,124.69,40.84,40.84,0,0,0,133.88,84.17Z"/><path class="cls-1" d="M92.84,117.28a33.34,33.34,0,1,1,23.64-9.63,33.12,33.12,0,0,1-23.64,9.63Zm.36-62.54a29.19,29.19,0,1,0,29,29.36A29.22,29.22,0,0,0,93.2,54.74Z"/><path class="cls-1" d="M100.62,84a8.32,8.32,0,0,0-2.3-14l0-2.7a2.09,2.09,0,1,0-4.17,0v2.08l-4.17,0V67.23a2.09,2.09,0,0,0-4.17,0v2.08l-4.17,0a2.09,2.09,0,0,0,0,4.17h2.08l-.06,10.42-.06,10.42H81.51a2.09,2.09,0,1,0,0,4.17l4.17,0v2.08a2.09,2.09,0,1,0,4.17,0V98.5l4.17,0v2.09a2.08,2.08,0,1,0,4.16,0l0-2.69a8.33,8.33,0,0,0,2.46-14ZM87.88,73.47l7.3,0a4.17,4.17,0,0,1-.05,8.33l-7.3,0Zm7.17,20.89-7.29,0,0-8.34,7.29,0a4.17,4.17,0,1,1,0,8.34Z"/></svg>