<svg id="Capa_1" data-name="Capa 1" xmlns="http://www.w3.org/2000/svg" viewBox="0 0 215 215"><defs><style>.cls-1{fill:#fff;}</style></defs><title>export iconos cv</title><g id="oS6ZYt.tif"><path class="cls-1" d="M183.86,174.28c2.16,0,4,0,5.84,0,2,0,3.26,1.11,3.24,2.72s-1.24,2.62-3.29,2.63c-5.27,0-10.54,0-16.12,0,0,2.91,0,5.61,0,8.31,0,2.93-.81,4.23-2.66,4.23s-2.7-1.29-2.7-4.19v-8.17h-28v7.79a13.3,13.3,0,0,1-.1,2.28,2.49,2.49,0,0,1-2.83,2.25,2.37,2.37,0,0,1-2.38-2.49c-.07-2.8-.07-5.59,0-8.39,0-1.1-.27-1.59-1.49-1.59-8.52.05-17,0-25.55,0a10.16,10.16,0,0,0-1.06.15v6.77c0,.83,0,1.65,0,2.48-.07,1.92-1.08,3.08-2.66,3.08s-2.65-1.18-2.68-3.06c0-2.54,0-5.08,0-7.63,0-.5,0-1-.09-1.67h-28V186c0,1,0,1.91,0,2.86-.06,2.08-1,3.28-2.64,3.31S68,191,68,189c0-2.54,0-5.09,0-7.63,0-1-.21-1.63-1.47-1.63-8.58,0-17.17,0-25.75,0a5,5,0,0,0-.83.21v7.68a18.36,18.36,0,0,1,0,2.1,2.64,2.64,0,0,1-5.28-.13c-.06-3.17,0-6.35,0-9.88H27.89c-1,0-1.91,0-2.86,0-1.77-.06-2.93-1.08-3-2.57s1.16-2.71,3-2.75c2.41-.06,4.83,0,7.25,0h2.16V146.35c-2.3,0-4.56,0-6.82,0-.95,0-1.91,0-2.86,0a2.65,2.65,0,1,1,.1-5.3c2.61-.07,5.22-.12,7.82,0,1.57.07,1.92-.51,1.91-2q-.1-12,0-24c0-1.64-.54-2.06-2.07-2-2.42.1-4.84.06-7.25,0-2,0-3.27-1.1-3.25-2.71s1.2-2.59,3.31-2.62c3,0,5.95,0,9.09,0,0-.8.13-1.41.13-2,0-7.94-.05-15.89,0-23.83,0-1.85-.61-2.26-2.28-2.18-2.41.12-4.83.06-7.25,0-1.92,0-3.07-1.09-3.05-2.68s1.19-2.62,3.1-2.65c3,0,6.08,0,9.28,0V46.5H27.68c-.82,0-1.65,0-2.48,0-1.89-.05-3.09-1.06-3.14-2.61s1.18-2.7,3.2-2.73c2.42,0,4.83,0,7.25,0,.62,0,1.24-.06,2.09-.1V38.87c0-4.26,0-8.52,0-12.77,0-2.08,1-3.26,2.63-3.28S39.94,24,40,26.05c0,6,0,12,0,17.92q0,49.79,0,99.55c0,9,0,18.06-.06,27.08v3.54H57.16v-2.33q0-39,0-78c0-3.54.67-4.21,4.24-4.21H79.34c3,0,3.82.78,3.82,3.84q0,39.11,0,78.19v2.55h7.91V172q0-27.93,0-55.88c0-3.44.68-4.14,4.1-4.14,6.11,0,12.21,0,18.31,0,2.83,0,3.61.79,3.62,3.65v58.5h7.25c0-.68.11-1.35.11-2V94.48c0-3.56.65-4.23,4.2-4.22h17.93c3.13,0,4,.83,4,4q0,38.72,0,77.43v2.53h7.29V64.57c0-3.87.55-4.44,4.36-4.44h17.74c3.25,0,3.95.7,3.94,3.88q0,54,0,108Zm-5.35-.12V116.64c0-4.67,0-4.67-4.68-4.67H163.31v62.19Zm-33.45,0V118.28c-4.49,0-8.86.06-13.23,0-1.59,0-2,.48-2,2.05,0,17.22,0,34.44,0,51.65,0,.73.08,1.46.13,2.21Zm-67.38,0V125.89h-15V174.2ZM163.3,65.59v40.72h15.07V65.59ZM111.54,174.15V137.83H96.49v36.32Zm-33.88-54.1V95c-4.51,0-8.88.06-13.24,0-1.5,0-2,.42-1.93,1.93.07,7.17,0,14.35,0,21.52,0,.55.09,1.1.13,1.68ZM145,112.74V95.63c-4.78,0-9.4,0-14,.06-.4,0-1.11.92-1.13,1.43-.11,2.85,0,5.7,0,8.56v7.06ZM96.38,132.06h15.3c0-4.62,0-9-.05-13.48a1.69,1.69,0,0,0-1.17-1.19c-4.31-.09-8.62-.07-12.93,0a1.58,1.58,0,0,0-1.1,1.07C96.36,123,96.38,127.46,96.38,132.06Z"/><path class="cls-1" d="M131.38,83.47c-5.75,3.83-11.48,7.61-17.15,11.47a2.29,2.29,0,0,0-.74,1.82,9.32,9.32,0,0,1-4.14,9.42,8.72,8.72,0,0,1-10.22.16A8.83,8.83,0,0,1,94.93,97a2.22,2.22,0,0,0-1.12-2.48q-8.22-5.73-16.32-11.6a2.29,2.29,0,0,0-2.88-.19,9.05,9.05,0,0,1-11.43-2A9.34,9.34,0,1,1,79.4,76a2.26,2.26,0,0,0,1,2.55q8.38,5.82,16.67,11.76a1.9,1.9,0,0,0,2.37.14,9.64,9.64,0,0,1,9.66.07,2.51,2.51,0,0,0,2.14-.09c5.38-3.49,10.69-7.1,16.07-10.61.95-.62.93-1.27.83-2.22-.78-7.38,5.72-12.46,12.75-10.09A2.45,2.45,0,0,0,143,67c6.17-5.88,12.25-11.84,18.41-17.73a2.26,2.26,0,0,0,.59-2.67,9.37,9.37,0,1,1,18.18-4.28c1.19,6.79-5.63,12.58-12.29,10.33a2.43,2.43,0,0,0-3,.64C159,59.15,153,64.91,147,70.76a2.8,2.8,0,0,0-.8,2.21c1.2,4.32.31,8-3.26,10.75C139.86,86.16,135.64,86.05,131.38,83.47Zm6-3.37a3.86,3.86,0,0,0,4.08-3.83,4,4,0,1,0-7.93-.26A3.94,3.94,0,0,0,137.34,80.1ZM100.17,98.39a4,4,0,0,0,3.86,4.1,4.15,4.15,0,0,0,4.07-3.95,4,4,0,0,0-3.92-4.06A3.88,3.88,0,0,0,100.17,98.39Zm-34-23.86a3.93,3.93,0,0,0,3.93,4,4,4,0,0,0,4-4,3.89,3.89,0,0,0-3.93-4A4,4,0,0,0,66.21,74.53ZM170.84,39.85a4,4,0,0,0,0,8,4,4,0,0,0,4-4A4.14,4.14,0,0,0,170.84,39.85Z"/></g></svg>