<svg id="Capa_1" data-name="Capa 1" xmlns="http://www.w3.org/2000/svg" viewBox="0 0 215 215"><defs><style>.cls-1{fill:#fff;}</style></defs><title>export iconos cv</title><g id="_0t151R.tif" data-name="0t151R.tif"><path class="cls-1" d="M89.26,0c12,.65,22.46,10.14,25.37,23.69a3.49,3.49,0,0,0,2.42,3c18.69,7,32.29,20.81,41,41,3.83,8.83,5.55,18.38,6.75,28.08s2.54,19.3,3.88,28.93c.73,5.18,3.32,7.3,7.88,6.71,13.92-1.79,24.74,11.57,22.18,27.37-1.43,8.82-8.24,16.08-16.58,17.59q-35.76,6.51-71.53,12.94c-2,.35-2.87,1.17-3.55,3.53-3.21,11.24-10,18.52-20.1,20.6-11.13,2.28-20.21-2.27-26.7-13.06-.81-1.34-1.54-1.66-2.86-1.41-6.4,1.18-12.79,2.42-19.22,3.33-8.19,1.17-14.71-2.49-19-10.41-4.49-8.25-4.08-16.73.63-24.85a20.38,20.38,0,0,1,13.21-9.8c3.53-.91,5.12-2.86,5.41-6.2a12.89,12.89,0,0,0-.11-2.84c-1.76-13.08-3.76-26.13-5.29-39.26A81.91,81.91,0,0,1,46.8,52,61.19,61.19,0,0,1,61.68,36.35c1.37-1,1.33-2.17,1.23-3.62-1-13.88,7-26,16.2-29.81C82.36,1.55,85.87,1,89.26,0ZM36.37,187.3c1.32-.24,3.09-.57,4.86-.88L106,174.76l62.72-11.28c4.15-.75,8.31-1.46,12.43-2.42,2.71-.64,4.2-2.95,4.71-6a7.51,7.51,0,0,0-2.51-7.1,6.87,6.87,0,0,0-6.49-1.5C169,148.14,158,141.53,156.05,129c-1.51-9.67-2.81-19.39-4-29.12-1.29-10.26-3-20.32-7.56-29.46-8.12-16.25-20.08-27-36-30.56C88.57,35.41,71.42,42.4,58.15,60.18,47.91,73.9,44.05,90.13,46.26,108.09c1.64,13.27,3.55,26.49,5.25,39.75,1.37,10.77-5,21.31-14.21,23.81a23,23,0,0,0-3.78,1.19,7.9,7.9,0,0,0-4,8.26C30.1,184.73,32.79,187.33,36.37,187.3ZM100,23.38c-2.86-5.18-8.11-7.61-13.34-6.52a13.2,13.2,0,0,0-9.88,10.71A58.68,58.68,0,0,1,100,23.38ZM92.46,192.65l-17.73,3.22C80.32,200.78,89.22,199.08,92.46,192.65Z"/><path class="cls-1" d="M92.46,192.65c-3.24,6.43-12.14,8.13-17.73,3.22Z"/></g></svg>