<svg id="Capa_1" data-name="Capa 1" xmlns="http://www.w3.org/2000/svg" viewBox="0 0 215 215"><defs><style>.cls-1{fill:#fff;}</style></defs><title>export iconos cv</title><g id="Line"><path class="cls-1" d="M168.1,36.23H46.89a8.26,8.26,0,0,0-8.26,8.26V165.7A8.26,8.26,0,0,0,46.89,174H168.1a8.26,8.26,0,0,0,8.26-8.26V44.49A8.26,8.26,0,0,0,168.1,36.23ZM60.8,168.45a46.83,46.83,0,0,1,93.53,0ZM171,165.7a2.75,2.75,0,0,1-2.75,2.75h-8.41a52.32,52.32,0,0,0-37.4-47.38,35.81,35.81,0,1,0-29.86,0,52.35,52.35,0,0,0-37.28,47.38h-8.4a2.75,2.75,0,0,1-2.75-2.75V44.49a2.75,2.75,0,0,1,2.75-2.75H168.1a2.75,2.75,0,0,1,2.75,2.75ZM107.5,118.87a30.31,30.31,0,1,1,30.3-30.3A30.31,30.31,0,0,1,107.5,118.87Z"/></g></svg>