<svg id="Capa_1" data-name="Capa 1" xmlns="http://www.w3.org/2000/svg" viewBox="0 0 215 215"><defs><style>.cls-1{fill:#fff;}</style></defs><title>export iconos cv</title><path class="cls-1" d="M107,215.08a107,107,0,1,1,107-107A107.11,107.11,0,0,1,107,215.08ZM107,9a99.07,99.07,0,1,0,99.06,99.07A99.18,99.18,0,0,0,107,9Z"/><path class="cls-1" d="M132.41,146.4v-38l-4.58-.25V94.84l4.54-.34v-26c1.37,0,2.53,0,3.69,0,6.1.16,12.3-.29,18.28.64,10.56,1.64,17.84,10.9,17.85,21.54v3.81l5,.37v13.26l-5,.31c.63,7.42-1,14.1-6.34,19.47s-12,7.12-19.68,6.68V146.4Zm13.8-64.19v12.4h12.25C159.75,85.54,155.38,81.15,146.21,82.21Zm-.08,38.53c8.94,1.4,14.37-4.19,12.17-12.3H146.13Z"/><path class="cls-1" d="M82.15,108c0-6.71-.19-13.43,0-20.13a19.73,19.73,0,0,1,26.39-18.2c8,2.66,13.17,10,13.27,19.3.14,12.73.22,25.46,0,38.19-.29,16.41-16.41,25.65-30.28,17.46a17.9,17.9,0,0,1-9.28-15.21c-.3-7.12-.07-14.27-.07-21.41Zm26.09.22c0-6.71.1-13.42,0-20.12a6.13,6.13,0,0,0-6.38-6,6.29,6.29,0,0,0-6.15,6.38c-.07,13.07-.09,26.15,0,39.22a7.84,7.84,0,0,0,1.87,4.58,5.45,5.45,0,0,0,6.57,1.54c2.51-1.05,4.07-2.85,4.08-5.69C108.25,121.43,108.23,114.8,108.24,108.18Z"/><path class="cls-1" d="M78.49,88.18H65.35c-.18-.57-.32-1.14-.53-1.68a6.61,6.61,0,0,0-7.08-4.41,6.74,6.74,0,0,0-5.41,6.37c-.1,1.71,0,3.44,0,5.16,0,10.85,0,21.7,0,32.55a10.73,10.73,0,0,0,.83,4.48A5.91,5.91,0,0,0,59,134.16a6.45,6.45,0,0,0,5.6-4,15.9,15.9,0,0,0,.76-2.3H78.52a18.25,18.25,0,0,1-6.44,14.53c-6.35,5.58-13.64,6.81-21.38,3.41-7.92-3.47-11.67-10.07-11.84-18.45q-.39-19.35,0-38.74c.28-14.31,13.53-23.54,26.79-18.94A19.78,19.78,0,0,1,78.49,88.18Z"/></svg>