<svg id="Capa_1" data-name="Capa 1" xmlns="http://www.w3.org/2000/svg" viewBox="0 0 215 215"><defs><style>.cls-1{fill:#fff;}</style></defs><title>export iconos cv</title><g id="c3Yzvp.tif"><path class="cls-1" d="M107.44,184.34a76.84,76.84,0,1,1,76.89-76.69A76.81,76.81,0,0,1,107.44,184.34ZM42.68,107.39a64.82,64.82,0,1,0,64.89-64.72A64.83,64.83,0,0,0,42.68,107.39Z"/><path class="cls-1" d="M101.49,118.61c0-2.29,0-4.57,0-6.86.07-3.82,2.08-6.13,5.89-6.45,4.73-.39,8.48-2.24,10.69-6.57A11.92,11.92,0,0,0,105,81.62c-4.93,1.09-8,4.31-9.16,9.32a19.92,19.92,0,0,0-.3,2.55,6.15,6.15,0,0,1-6.11,5.76,6,6,0,0,1-5.87-6.15c.32-9.46,4.57-16.68,13-21.07s17-3.82,24.77,1.66c7.6,5.32,11.07,12.9,10.06,22.09-1.07,9.84-6.63,16.54-15.88,20.06-1.45.55-2.07,1.13-2,2.74.16,2.39.07,4.8,0,7.2-.07,3.83-2.6,6.49-6.07,6.45s-5.86-2.68-5.93-6.42C101.46,123.41,101.49,121,101.49,118.61Z"/><path class="cls-1" d="M107.55,151.76a7.51,7.51,0,1,1,7.47-7.54A7.53,7.53,0,0,1,107.55,151.76Z"/></g></svg>