<svg id="Capa_1" data-name="Capa 1" xmlns="http://www.w3.org/2000/svg" viewBox="0 0 215 215"><defs><style>.cls-1{fill:#fff;}</style></defs><title>export iconos cv</title><path class="cls-1" d="M107.5,30.05A77.45,77.45,0,1,0,185,107.5,77.46,77.46,0,0,0,107.5,30.05Zm0,148.44a71,71,0,1,1,71-71A71,71,0,0,1,107.5,178.49Z"/><path class="cls-1" d="M107.5,46.19a61.31,61.31,0,1,0,61.31,61.31A61.31,61.31,0,0,0,107.5,46.19Zm0,116.17a54.86,54.86,0,1,1,54.86-54.86A54.86,54.86,0,0,1,107.5,162.36Z"/><path class="cls-1" d="M115.33,104.08c-1.85-.65-3.48-1.26-5-1.85V77.74a15.82,15.82,0,0,1,8,3.36,3.23,3.23,0,0,0,4.36-4.75,22.62,22.62,0,0,0-12.36-5.1v-5.7a3.23,3.23,0,0,0-6.46,0v6a27,27,0,0,0-3.08.72A17.44,17.44,0,0,0,88.83,85.93a15.21,15.21,0,0,0,4.91,15,45.55,45.55,0,0,0,10.1,5.66v30.09a20.4,20.4,0,0,1-12.26-4.09A3.23,3.23,0,1,0,88,138a26.53,26.53,0,0,0,15.79,5.15v6.33a3.23,3.23,0,1,0,6.45,0v-6.57a21.21,21.21,0,0,0,17.79-17.6,18.54,18.54,0,0,0-12.73-21.2Zm-11.47-4.6a33.7,33.7,0,0,1-6.11-3.65,8.83,8.83,0,0,1-2.56-8.72,11,11,0,0,1,8.67-9Zm17.88,24.73a14.87,14.87,0,0,1-11.43,12.12V109.11c.92.35,1.86.69,2.87,1a12.2,12.2,0,0,1,8.56,14.06Z"/></svg>