<svg id="Capa_1" data-name="Capa 1" xmlns="http://www.w3.org/2000/svg" viewBox="0 0 215 215"><defs><style>.cls-1{fill:#fff;}</style></defs><title>export iconos cv</title><g id="EEpGUR.tif"><path class="cls-1" d="M212,165.29H111.47V182c-4.14,0-8.12-.21-12.06,0a16.57,16.57,0,0,1-10.52-2.92,107,107,0,0,0-32.76-13.8c-.53-.12-1.07-.17-1.8-.29v15.45c0,6.23.14,12.47-.06,18.7a13.31,13.31,0,0,1-20.17,11.1c-4.49-2.64-6.64-6.76-6.65-12,0-8.79-.1-17.58.05-26.37.07-3.88-2.31-6.7-3.63-10-.19-.47-1.18-.7-1.85-.87A23.36,23.36,0,0,1,4.09,135.91c1.36-12.2,11.18-20.66,23.44-21.11,7.17-.26,14.31-1.22,21.46-1.88a15.7,15.7,0,0,0,2-.47V4.22H212Zm-93.79-6.84V51.21H145V158.33h13.46V78.1H185.4v80.28h19.89V11H57.83V111.25L77.94,104V64.71H104.8V94.8h6.75v63.65Zm-80.59-2.93a124.34,124.34,0,0,1,53.53,17.07V104.12a123.48,123.48,0,0,1-53.53,17.12ZM125,57.94V158.32h13.15V57.94Zm53.4,100.46V84.79H165.28V158.4ZM31.93,161.89l-.53.43c3.88,5,2.67,10.67,2.75,16.16.1,6.62.06,13.24,0,19.86A6.9,6.9,0,0,0,36.73,204a6.17,6.17,0,0,0,7,.86,6.62,6.62,0,0,0,3.91-6.34q0-16.86,0-33.73a13.85,13.85,0,0,0-.17-1.4Zm-1.25-40.23c-12.7-1-20.15,7.6-19.93,17.15.23,10.33,9.1,17.43,19.93,16.17Zm73.85,53.53V101.57H98.11v73.62ZM84.71,71.25V99.88c4.62-1.39,7.62-6.3,13.14-5.09V71.33c-.59,0-1-.08-1.51-.08C92.52,71.24,88.7,71.25,84.71,71.25Z"/><path class="cls-1" d="M171.73,71.17a13.23,13.23,0,0,1-13-15.84,2.5,2.5,0,0,0-1.29-3.12q-7.74-5-15.34-10.23A2.38,2.38,0,0,0,139,42c-5.93,3.9-12.75,3-17.49-2.34a2.42,2.42,0,0,0-3.08-.8q-5.86,2.07-11.8,3.92a2.38,2.38,0,0,0-2,2.48A13.33,13.33,0,0,1,91.34,57.8a13.42,13.42,0,0,1-6-25.48,13.12,13.12,0,0,1,15.23,2.61c1.67,1.81,3,2,5.13,1.14,3.57-1.39,7.27-2.4,10.86-3.73a2.76,2.76,0,0,0,1.48-1.93c.76-7.44,6.1-12.69,13.29-12.93,6.7-.22,12.48,4.91,13.55,12.08a5.27,5.27,0,0,1,0,2.37c-.95,2.66,0,4.11,2.4,5.53,4.84,2.92,9.48,6.19,14.13,9.41a2.18,2.18,0,0,0,2.94-.08,13.15,13.15,0,0,1,15.65.38,13.43,13.43,0,0,1,4.51,15A13.17,13.17,0,0,1,171.73,71.17ZM178.5,57.7a6.65,6.65,0,0,0-6.81-6.57,6.68,6.68,0,0,0,.22,13.35A6.63,6.63,0,0,0,178.5,57.7Zm-87-19.94a6.53,6.53,0,0,0-6.82,6.51,6.7,6.7,0,0,0,6.59,6.82A6.85,6.85,0,0,0,98,44.63,6.71,6.71,0,0,0,91.45,37.76ZM138.19,31a6.49,6.49,0,0,0-6.64-6.67,6.68,6.68,0,0,0-6.69,6.7,6.93,6.93,0,0,0,6.59,6.65A6.77,6.77,0,0,0,138.19,31Z"/><path class="cls-1" d="M50.77,135H44.43v-6.51h6.34Z"/><path class="cls-1" d="M50.85,148.35H44.4v-6.48h6.45Z"/></g></svg>