<svg id="Capa_1" data-name="Capa 1" xmlns="http://www.w3.org/2000/svg" viewBox="0 0 215 215"><defs><style>.cls-1{fill:#fff;}</style></defs><title>export iconos cv</title><g id="Cn7IrP.tif"><path class="cls-1" d="M43.71,183.3c1-6.16,1.89-11.66,2.79-17.16,1.27-7.72,2.48-15.45,3.85-23.15a3.73,3.73,0,0,0-1.37-3.6q-8.88-9-17.76-18.13c-3-3-5.93-6.11-8.91-9.16-1.08-1.11-1.69-2.35-1.1-3.89a3.82,3.82,0,0,1,3.28-2.44C37,103.88,49.58,102,62.14,100.11c1.56-.23,1.78-1.4,2.26-2.42Q71.13,83.37,77.83,69c1-2.09,2-4.17,3-6.28a3.61,3.61,0,0,1,3.74-2.28c1.61.08,2.49,1.07,3.17,2.51,5.55,11.9,11.19,23.76,16.73,35.66a2.52,2.52,0,0,0,2.3,1.49c12.26,1.87,24.51,3.77,36.77,5.61,1.74.26,3.13.82,3.73,2.62s-.37,3-1.51,4.14q-13.4,13.71-26.82,27.41a2.66,2.66,0,0,0-.88,2.6c2.15,12.83,4.23,25.66,6.33,38.49a12,12,0,0,1,.19,1.68c.09,3.24-2.63,5-5.46,3.38q-16.36-9.06-32.7-18.18a3.56,3.56,0,0,0-4.05-.1c-10.78,6.1-21.66,12-32.5,18-1.43.79-3,1.42-4.34.19A10.89,10.89,0,0,1,43.71,183.3Zm72.57-6.92c-.07-.89-.06-1.45-.15-2q-2.7-16.56-5.42-33.11a4.33,4.33,0,0,1,1.13-4.12q8.86-8.94,17.64-18c2.3-2.36,4.56-4.77,7-7.35l-2.49-.44c-10.39-1.59-20.78-3.22-31.19-4.75a4.26,4.26,0,0,1-3.59-2.59q-3-6.47-6-12.91c-2.94-6.24-5.9-12.48-9-19-.63,1.28-1.13,2.26-1.6,3.26Q75.89,89.7,69.19,104.05a4.15,4.15,0,0,1-3.42,2.54q-12.13,1.84-24.28,3.71c-3.1.47-6.2,1-9.55,1.53,1.26,1.35,2.25,2.47,3.29,3.53Q45.81,126.19,56.4,137a4.39,4.39,0,0,1,1.38,4.06q-2,11.94-4,23.9c-.6,3.68-1.18,7.37-1.8,11.3.61-.24.95-.33,1.26-.49,9.37-5.16,18.75-10.28,28.09-15.5a4.85,4.85,0,0,1,5.25-.22c8.1,4.55,16.25,9,24.38,13.49C112.67,174.46,114.36,175.35,116.28,176.38Z"/><path class="cls-1" d="M178.66,69.64l-12.28-1.88c-7.18-1.08-14.36-2.18-21.55-3.24a3.91,3.91,0,0,1-3.24-2.22L130.1,37.86,126.37,30c-1.63,3.41-3.15,6.53-4.62,9.67-3.5,7.46-6.92,15-10.55,22.36a5.14,5.14,0,0,1-3,2.36,68.42,68.42,0,0,1-8.33,1.31,3.52,3.52,0,0,1-4.26-3c-.24-1.94,1.18-3.57,3.43-3.94a26.05,26.05,0,0,1,4.26-.62c1.92,0,2.68-1.08,3.39-2.61q7.49-16.15,15.06-32.26c.45-1,.89-1.93,1.35-2.88a3.55,3.55,0,0,1,3.52-2.05,3.43,3.43,0,0,1,3.18,2.25q5.85,12.48,11.72,25c1.78,3.8,3.53,7.6,5.39,11.35a2.31,2.31,0,0,0,1.52,1q18.57,2.88,37.14,5.65c1.69.26,3.13.7,3.79,2.53s-.3,3.1-1.48,4.3Q174.5,84,161.16,97.65a3,3,0,0,0-1,3q3.18,19,6.25,38.11a13,13,0,0,1,.23,2.05A3.53,3.53,0,0,1,161.3,144q-9.18-5-18.34-10.12a12.46,12.46,0,0,1-2-1.42,3,3,0,0,1-.65-4.07,3.28,3.28,0,0,1,4-1.66c1.6.67,3.12,1.55,4.66,2.38,3.05,1.65,6.09,3.33,9.6,5.25-.56-3.5-1-6.5-1.52-9.5l-4.29-26.26a4.11,4.11,0,0,1,1.35-3.71q10.29-10.45,20.5-21C175.91,72.61,177.16,71.23,178.66,69.64Z"/></g></svg>