<svg id="Capa_1" data-name="Capa 1" xmlns="http://www.w3.org/2000/svg" viewBox="0 0 520 520"><defs><style>.cls-1{fill:#fff;}</style></defs><title>recarga</title><g id="hd0SvJ.tif"><path class="cls-1" d="M426,111.67v-4.8c0-19.14,0-38.28,0-57.42,0-6.87,3.53-11.22,9-11.44s9.6,4,9.63,10.81q.18,44.29,0,88.6c0,8.23-3.82,11.4-12.14,11.4q-43.56,0-87.13,0c-8.37,0-12.95-4.84-11.26-11.68,1.12-4.51,5.1-7,11.65-7q31.93,0,63.87,0h6.83c-4.7-5.12-8.25-9.32-12.13-13.18C372.9,85.72,335.46,66.09,291.64,59.12,246.91,52,204.3,59,164.35,80.27c-36.06,19.23-63.9,47-83.48,83A198.21,198.21,0,0,0,56.94,273.73c3.07,44.21,19,83.43,47.83,117.22,32.22,37.74,72.83,61.16,121.77,69.19,47.12,7.74,91.82-.13,133.46-23.84,36.05-20.52,63.27-49.52,81.83-86.55a197.83,197.83,0,0,0,21.05-86.61,17.76,17.76,0,0,1,1.66-8A8.2,8.2,0,0,1,474.69,251c4.34,1.36,7,4.63,6.7,9.27-.68,11.33-1,22.74-2.68,34a209.65,209.65,0,0,1-24.6,72.08c-21.26,38.18-51.06,67.88-89.56,88.71a222.06,222.06,0,0,1-212-1.23c-40.14-22.17-70.68-54-91.24-95C43,322.39,35.55,283.72,38.58,243a216.86,216.86,0,0,1,26.6-89.76C86.31,115,116.06,85.1,154.68,64.52c54.9-29.24,112.41-34.39,171.73-16.18,38.06,11.68,70.42,32.85,97.31,62.27a15.55,15.55,0,0,1,1.16,1.6Z"/><path class="cls-1" d="M259.88,399.11c-74,0-134.35-60.23-134.35-134.13,0-73.72,60.2-134.14,134-134.1,73.94.05,134.33,59.49,134.32,134.1S333.54,398.7,259.88,399.11Zm123.74-134.2c-.74-69.14-55.83-123.65-124-123.64a123.71,123.71,0,1,0,.13,247.41C327.87,388.6,382.89,334.24,383.62,264.91Z"/><path class="cls-1" d="M259.73,366.2a101.23,101.23,0,1,1,71.55-29.7,100.62,100.62,0,0,1-71.55,29.7Zm-.12-189.78a88.56,88.56,0,1,0,88.62,88.5A88.67,88.67,0,0,0,259.61,176.42Z"/><path class="cls-1" d="M287.71,265.65q-8.32-7.57-24.59-12.37-11.34-3.75-15.93-7.05t-4.52-8.3a10.65,10.65,0,0,1,4.57-8.78q4.48-3.36,12.62-3.24a44.08,44.08,0,0,1,10.49,1.38,26.1,26.1,0,0,1,7.48,3l2.38,13.59,14.84.23.3-20.2a47.82,47.82,0,0,0-15.58-9.46,56.16,56.16,0,0,0-13.7-3.3l.26-17.24-11.83-.18-.26,17.17q-12.21,1-20.84,7.23-10.28,7.49-10.46,19.48t8.73,19.25q8.91,7.11,26.39,12.46,10.06,3.2,14,6.72a11.44,11.44,0,0,1,3.89,9.21,10.7,10.7,0,0,1-4.36,8.81q-4.29,3.25-12.42,3.14a38.29,38.29,0,0,1-11.4-1.76,24,24,0,0,1-8-4.16l-1.89-14.06L222.56,277l-.31,20.61a43.59,43.59,0,0,0,15.61,10.53,53.85,53.85,0,0,0,14.87,3.67l-.2,13.67,11.83.17.2-13.63c8.4-.59,15.4-2.82,21-6.76q10.14-7.17,10.33-19.84Q296,273.23,287.71,265.65Z"/></g></svg>