<svg id="Capa_1" data-name="Capa 1" xmlns="http://www.w3.org/2000/svg" viewBox="0 0 520 520"><defs><style>.cls-1{fill:#fff;}</style></defs><title>retiro</title><g id="sTpTg4.tif"><path class="cls-1" d="M104,220.35H53c-6.41,0-12.83.12-19.23,0-5.79-.14-8.93-3-8.94-8.68-.07-32.23-.44-64.48.17-96.7.4-20.83,18.2-37,39.59-37.13,39.21-.17,78.43-.08,117.64-.08q136.86,0,273.72,0c28.13,0,44.07,16,44.07,44.3v84.83c0,11.77-1.71,13.51-13.25,13.51h-66V227q0,93.87,0,187.76c0,26.77-16.29,43.16-42.9,43.16q-115.36,0-230.74,0c-27,0-43.19-16.33-43.18-43.43q0-93.58,0-187.19Zm15.87-63.09v6q0,126.1,0,252.21c0,17.11,9.49,26.64,26.57,26.64q115.92,0,231.85,0c17.08,0,26.63-9.54,26.63-26.61q0-126.1,0-252.22v-5.77H334.08c36.52,44.24,26.35,100.84-5.67,131.26-34.37,32.65-86.22,35.76-123.79,7-18.18-13.89-30.06-32.14-34.9-54.57-6.71-31.06.83-58.84,21.18-83.93Zm364.29,47v-5.4q0-39.58,0-79.18c0-16.33-9.74-26.08-26-26.08q-195.69,0-391.38,0c-16.3,0-26,9.76-26.06,26q0,39.6,0,79.19v5.28h62.87V157.34H87.93v15.18H72.27V153.67c0-10.53,2-12.55,12.48-12.55q155.25,0,310.5,0c15.84,0,31.68.07,47.51,0,4.71,0,8.88,1.64,9.28,6.37.69,8.33.19,16.76.19,25.06H436.45V157.28H421.2v47ZM254.46,157c-11.55,0-22.45.25-33.33-.12-4.75-.16-8.2,1.41-11.6,4.46a79.27,79.27,0,0,0,47.48,138c33.06,2.26,63.82-16.34,77.76-47,13.15-28.93,6.58-64.48-15.9-87.59-5.26-5.41-10.67-8.72-18.72-8-8.41.78-16.95.16-25.44.2-1.42,0-2.84.28-4.65.47v14.93h-15.6Z"/><path class="cls-1" d="M151.24,363.13c26.4,5.68,41.78,21.32,47.37,46.95H326.09c5.43-25.37,20.7-41.11,46.79-46.75V220.79h16.25v5.87q0,70.13,0,140.26c0,9.24-1.77,11.14-11,11.93a39.79,39.79,0,0,0-36.47,36.95c-.62,8.35-2.85,10.45-11.29,10.45q-68.14,0-136.3,0c-8.05,0-10.4-2.22-11-10.17-1.51-20.45-16.79-35.7-37.32-37.27-7.7-.58-10.1-3-10.1-10.5q-.06-71.82,0-143.65c0-1.28.12-2.55.2-4.1h15.43Z"/><path class="cls-1" d="M230.69,362.72a31.67,31.67,0,1,1,31.51,31.84A31.73,31.73,0,0,1,230.69,362.72Zm47.46,0a15.79,15.79,0,1,0-15.72,16A16.07,16.07,0,0,0,278.15,362.68Z"/><path class="cls-1" d="M222.75,228.16H207.19V212.52h15.56c0-5.13-.05-9.6,0-14.07.1-6.8,2.89-9.67,9.55-9.8,4.49-.08,9,0,13.86,0v15.63l-7.14.48v31.09h15.39c0-10.07-.05-20.17,0-30.27.06-7.86,3.51-14.53,10.48-15.55a93.29,93.29,0,0,1,26.75.06c6.41.94,9.54,6.93,10.2,13.47.27,2.6.05,5.26.05,8.54h15.51v16H302c0,4.92,0,9.36,0,13.8-.09,7.15-2.84,10-9.84,10.09-4.33.07-8.67,0-13.48,0V236.55l7-.74a13.09,13.09,0,0,0,.39-2.23c0-9.41,0-18.82,0-28.65h-15.8c0,9.6,0,19.16,0,28.71,0,12.2-6.23,18.33-18.5,18.38-3.77,0-7.54,0-11.31,0-11.2-.09-17.58-6.38-17.72-17.44C222.73,232.72,222.75,230.86,222.75,228.16Z"/><path class="cls-1" d="M254.89,267.8h15v15.5h-15Z"/></g></svg>