<svg id="Capa_1" data-name="Capa 1" xmlns="http://www.w3.org/2000/svg" viewBox="0 0 215 215"><defs><style>.cls-1{fill:#fff;}</style></defs><title>export iconos cv</title><g id="OeYZ16.tif"><path class="cls-1" d="M63.12,46.9a54.15,54.15,0,0,1,14.95-17c18.47-13.43,38.42-16.09,59.34-6.81,17.84,7.91,28.76,21.89,33,41A3.42,3.42,0,0,0,173,66.9c20.47,7.28,32.14,21.91,35,43.29,1.86,13.72-2,26.25-10.47,37.06-9.83,12.53-22.75,19.43-39,19.42-9.19,0-18.38,0-27.57,0-3.55,0-5.83-2.34-5.74-5.72a5.12,5.12,0,0,1,4.4-5.14,17.52,17.52,0,0,1,2.9-.19c8.3,0,16.59-.1,24.89,0,11.79.17,21.45-4.39,29.3-13a40.18,40.18,0,0,0-1.85-56.09,36.08,36.08,0,0,0-18.16-9.91c-4-.81-6.12-2.79-6.62-6.9a44.9,44.9,0,0,0-15.74-29.46c-10.5-9.08-22.83-12.63-36.54-11.06A44.71,44.71,0,0,0,78.62,44.56a69.38,69.38,0,0,0-6.94,10.06c-2.62,4.29-4.06,5-9,3.66A20.58,20.58,0,0,0,37,72.93a21,21,0,0,0,.22,11c1.23,4.64.62,6.18-3.35,8.84C20.23,102,15.12,118.11,21.3,133.48c4.52,11.27,12.59,18.8,24.64,21.61a23.55,23.55,0,0,0,5.11.49c11,0,22,0,33,0,4.1,0,6.3,1.74,6.64,5.11a5.3,5.3,0,0,1-4.73,5.95,6.54,6.54,0,0,1-.89.09c-12.4,0-24.84.54-37.19-.29-15.11-1-26.06-9.53-33.69-22.23A44.06,44.06,0,0,1,8.45,112,43.33,43.33,0,0,1,23.94,86.33a3.79,3.79,0,0,0,1.55-3.91c-1.7-14.2,5.14-26.86,17.92-33A31.91,31.91,0,0,1,63.12,46.9Z"/><path class="cls-1" d="M102.38,106c-1.12,1.06-1.71,1.6-2.28,2.16-5.71,5.71-11.38,11.45-17.14,17.1-3.5,3.43-8.12,2.65-9.63-1.52A5.09,5.09,0,0,1,74.54,118Q89.3,103.27,104,88.52c2.43-2.41,5.33-2.55,7.72-.18Q126.6,103,141.3,117.76a5.55,5.55,0,0,1,.16,8c-2.2,2.26-5.67,2.15-8.37-.49-5.71-5.6-11.33-11.28-17-17a26,26,0,0,1-1.7-2.07l-.69.25c0,.9-.11,1.8-.11,2.69q0,43.26,0,86.51a17,17,0,0,1-.2,3.11,5.36,5.36,0,0,1-5.55,4.5,5.47,5.47,0,0,1-5.29-4.85,32.12,32.12,0,0,1-.17-3.8q0-42.57,0-85.16Z"/></g></svg>