<svg id="Capa_1" data-name="Capa 1" xmlns="http://www.w3.org/2000/svg" viewBox="0 0 215 215"><defs><style>.cls-1{fill:#fff;}</style></defs><title>export iconos cv</title><g id="bomviL.tif"><path class="cls-1" d="M107.82,194.22H45.21c-20.92,0-35.64-14.72-35.67-35.64q-.06-38.37,0-76.73c0-20.5,14.84-35.36,35.35-35.48,6,0,12.09-.08,18.13.06a3.46,3.46,0,0,0,3.75-2.37c2.35-5.3,5-10.42,10.13-13.7a22.6,22.6,0,0,1,12.45-3.67c12.45,0,24.9-.05,37.35,0,8.81.05,15.38,4.07,19.77,11.7a2.83,2.83,0,0,1,.38.73c1.57,6.4,5.74,8.1,12,7.36,4.6-.56,9.33-.21,14-.09A34.14,34.14,0,0,1,206.38,80.5q.23,39.87,0,79.76a34,34,0,0,1-34,33.93C150.85,194.31,129.33,194.22,107.82,194.22Zm-.09-9.79h62.9c15.45,0,25.9-10.44,25.91-25.89q0-38.08,0-76.19a30.09,30.09,0,0,0-.44-6C193.56,64,184,56.35,170.88,56.19c-7.51-.09-15-.07-22.52,0a5.77,5.77,0,0,1-5.87-3.62c-1.43-3.07-3-6.08-4.58-9.08a12.12,12.12,0,0,0-11.29-7q-18.68-.1-37.35,0a12,12,0,0,0-11.25,7c-1.51,2.94-3.07,5.85-4.44,8.85-1.27,2.78-3.29,3.87-6.3,3.82-7.24-.1-14.47-.06-21.7,0-15.86.1-26.16,10.41-26.17,26.23q0,38.1,0,76.19a28.87,28.87,0,0,0,.42,5.74c2.53,12.36,12.16,20,25.24,20.08C66,184.48,86.86,184.43,107.73,184.43Z"/><path class="cls-1" d="M157.16,115.56C156.76,143,134.78,165,108,164.69c-27.74-.31-49.58-22.46-49.23-49.91a49.34,49.34,0,0,1,50.18-48.71C135.68,66.47,157.55,88.92,157.16,115.56Zm-48.92,39.22a39.43,39.43,0,1,0-39.69-39.34A39.43,39.43,0,0,0,108.24,154.78Z"/></g></svg>