<svg id="Capa_1" data-name="Capa 1" xmlns="http://www.w3.org/2000/svg" viewBox="0 0 215 215"><defs><style>.cls-1{fill:#fff;}</style></defs><title>export iconos cv</title><g id="cBMYac.tif"><path class="cls-1" d="M26.16,56.66c-5.5,0-10.65,0-15.81,0-1.67,0-3.2-.13-4.1-1.88s-.07-3.07,1-4.39L39.62,8.24c2.37-3.07,4.62-3,7,0q16.16,21,32.28,42c1,1.3,2,2.55,1.14,4.37s-2.46,2.06-4.24,2.05c-5.14,0-10.29,0-15.59,0V80.85c11.05-17.78,26.72-27.44,47.28-27.43s36.16,9.63,47.23,27.42c.08-1.06.17-1.72.17-2.38q0-13.67,0-27.34c0-3.56,1.06-4.62,4.61-4.62q12.21,0,24.43,0c3.86,0,4.84,1,4.84,4.89V158.26c5.5,0,10.8-.07,16.09.06a5.4,5.4,0,0,1,3.41,1.29c1.52,1.53.79,3.22-.4,4.76q-9.81,12.74-19.59,25.5-6.4,8.34-12.84,16.66c-2.62,3.38-4.64,3.36-7.27-.06q-15.78-20.49-31.54-41c-1.19-1.55-2.88-3-1.64-5.36s3.37-1.81,5.33-1.82c4.75,0,9.49,0,14.4,0V134.14c-11,17.66-26.68,27.38-47.24,27.37s-36.15-9.64-47.22-27.33a19.14,19.14,0,0,0-.21,2c0,6.85,0,13.7,0,20.56,0,3.92-1,4.9-4.81,4.91H31c-3.89,0-4.87-1-4.87-4.85q0-48.49,0-97ZM144.87,165.05c9.2,11.95,18,23.41,27,35l26.7-34.73a3.61,3.61,0,0,0-.73-.3l-10.4,0c-4.66,0-5.42-.78-5.42-5.52V53.45H161.68V160.26c0,3.75-1,4.77-4.7,4.78C153.14,165.06,149.29,165.05,144.87,165.05Zm-91.6-10.29v-3q0-48.37,0-96.74c0-4.2.89-5.09,5.1-5.1,3.74,0,7.47,0,11.71,0l-27-35.07L16.26,49.74c.71.09.87.13,1,.13H27.45c4.72,0,5.5.77,5.5,5.44v99.44ZM154.89,107.4a47.42,47.42,0,1,0-47.35,47.47A47.51,47.51,0,0,0,154.89,107.4Z"/><path class="cls-1" d="M107.3,148.1a40.65,40.65,0,1,1,40.82-40.46A40.79,40.79,0,0,1,107.3,148.1Zm.22-6.85a33.79,33.79,0,1,0-33.84-33.8A33.78,33.78,0,0,0,107.52,141.25Z"/><path class="cls-1" d="M110.81,131.39v6.44h-6.64v-6.61c-5.46.13-10.36-.74-13.93-5a14.25,14.25,0,0,1-3.11-8.39h6.52c1.82,5.7,3.95,7.06,10.28,6.42V110.9c-5.29.14-10.19-.77-13.73-5.09a13.33,13.33,0,0,1-3-9c.13-7.83,5.42-12,16.89-13.31V77.09h6.72v6.64c5.4-.27,10.21.65,13.73,4.84a13,13,0,0,1,3.25,8.55h-6.45c-1.82-5.67-3.93-7-10.29-6.42v13.35c5.22-.29,10,.68,13.52,4.88a13.06,13.06,0,0,1,3.25,8.87C127.61,126,122.52,130.11,110.81,131.39ZM104,90.68c-3.64-.42-6.93-.28-9,3.11a6.35,6.35,0,0,0,.18,7.27c2.13,3.22,5.38,3.27,8.87,2.86Zm7,33.59c3.71.35,7,.27,9.09-3.22a6.32,6.32,0,0,0-.23-7.25c-2.2-3.15-5.4-3.23-8.86-2.77Z"/></g></svg>