<svg id="Capa_1" data-name="Capa 1" xmlns="http://www.w3.org/2000/svg" viewBox="0 0 215 215"><defs><style>.cls-1{fill:#fff;}</style></defs><title>export iconos cv</title><path class="cls-1" d="M213.85,153.75q-19.51,19.71-39,39.35c-.21-.2-.45-.41-.67-.63l-34.11-33.94a32.57,32.57,0,0,1-7.28-10,27.79,27.79,0,0,1,4-28.94l-9.83-9.51,3.57-3.87,9.75,9.52c2.27-1.28,4.42-2.74,6.76-3.78a26.9,26.9,0,0,1,21-.56,29,29,0,0,1,10.45,7q17.43,17.43,34.92,34.78Zm-39,32.14,32-32.19c-1.23-1.15-2.54-2.3-3.77-3.53q-14.39-14.28-28.73-28.59a22.13,22.13,0,0,0-7.83-5.23c-8.11-3-15.58-1.82-22.77,3.42,1.68,1.57,3.29,3,4.82,4.56.82.82,1.55,1.63,2.83.89a1.7,1.7,0,0,1,.57-.09,7.15,7.15,0,0,1,7.21,3.36,7.19,7.19,0,0,1-7.75,10.77,7.22,7.22,0,0,1-5.26-9.3c.08-.27.11-.71,0-.87-1.9-1.92-3.84-3.8-5.87-5.79-.76,1.22-1.61,2.37-2.24,3.63a22.64,22.64,0,0,0,4.41,26.69l31.66,31.57Zm-23.93-53.62a2.19,2.19,0,0,0,2.15,2.08,2.08,2.08,0,0,0,2.08-2.1,2.13,2.13,0,0,0-2.17-2.13A2.16,2.16,0,0,0,150.89,132.27Z"/><path class="cls-1" d="M179.4,170.71l-5.06.72c-1.69-11.6-3.37-23.13-5.08-34.8l5-.76C176,147.5,177.69,159.06,179.4,170.71Z"/><path class="cls-1" d="M181.2,153.19a7,7,0,1,1,14,0,7.15,7.15,0,0,1-7,7A7,7,0,0,1,181.2,153.19Zm7,1.91a1.94,1.94,0,0,0,1.9-1.92,2,2,0,0,0-2-1.86,1.87,1.87,0,0,0-1.87,1.92A1.93,1.93,0,0,0,188.23,155.1Z"/><path class="cls-1" d="M160.36,160.6a7,7,0,1,1,7-7A7,7,0,0,1,160.36,160.6Zm1.84-7.06a1.88,1.88,0,0,0-1.92-1.87,1.93,1.93,0,0,0-1.87,1.92,1.9,1.9,0,1,0,3.79-.05Z"/><g id="hd0SvJ.tif"><path class="cls-1" d="M68.93,160.93a67.43,67.43,0,1,1,67.33-67.44A67.61,67.61,0,0,1,68.93,160.93Zm62.22-67.47C130.77,58.7,103.08,31.29,68.8,31.3a62.2,62.2,0,1,0,.07,124.39C103.12,155.65,130.78,128.32,131.15,93.46Z"/><path class="cls-1" d="M68.86,144.38a50.87,50.87,0,1,1,36-14.92,50.54,50.54,0,0,1-36,14.92ZM68.79,49a44.53,44.53,0,1,0,44.56,44.5A44.58,44.58,0,0,0,68.79,49Z"/><path class="cls-1" d="M82.92,93.83Q78.73,90,70.56,87.61a32.36,32.36,0,0,1-8-3.54,4.86,4.86,0,0,1-2.27-4.18,5.35,5.35,0,0,1,2.29-4.41,10.16,10.16,0,0,1,6.35-1.63,22.37,22.37,0,0,1,5.28.69A13.4,13.4,0,0,1,78,76l1.19,6.84,7.46.11.16-10.16a24.23,24.23,0,0,0-7.84-4.75A28.35,28.35,0,0,0,72,66.41l.13-8.67-6-.09-.13,8.63a20.27,20.27,0,0,0-10.47,3.64,11.81,11.81,0,0,0-5.26,9.79,11.49,11.49,0,0,0,4.39,9.68Q59.22,93,68,95.65c3.37,1.08,5.72,2.2,7,3.38a5.75,5.75,0,0,1,2,4.63,5.42,5.42,0,0,1-2.19,4.44q-2.16,1.64-6.25,1.57a19.24,19.24,0,0,1-5.73-.88,12.11,12.11,0,0,1-4-2.09l-1-7.07-7.7-.12L50,109.87a21.82,21.82,0,0,0,7.85,5.3A27.16,27.16,0,0,0,65.34,117l-.11,6.88,6,.08.1-6.85a20.42,20.42,0,0,0,10.55-3.4,11.79,11.79,0,0,0,5.19-10A12.52,12.52,0,0,0,82.92,93.83Z"/></g></svg>