<svg id="Capa_1" data-name="Capa 1" xmlns="http://www.w3.org/2000/svg" viewBox="0 0 215 215"><defs><style>.cls-1{fill:#fff;stroke:#fff;stroke-miterlimit:10;stroke-width:0.5px;}</style></defs><title>export iconos cv</title><path class="cls-1" d="M107.87,145.79h-2.41a92.57,92.57,0,0,1-39.91-9.53,84,84,0,0,1-34.07-30.12c-.44-.68-.71-1.31.22-2.78C40.71,89,53,78.66,69.3,71.64a93.79,93.79,0,0,1,37.25-7.56c2.76,0,5.6.11,8.43.34a91.3,91.3,0,0,1,48.24,17.86,85.55,85.55,0,0,1,19.94,21.51c.37.55.66,1.19-.13,2.43a81.17,81.17,0,0,1-27,26.53A96.69,96.69,0,0,1,107.87,145.79ZM107.6,67.6C87.45,67.7,71.13,84.46,71.22,105S87.38,142.24,107,142.24h.28c20.19-.17,36-16.58,36-37.35,0-20.21-16.28-37.29-35.54-37.29Zm30.22,11c12.11,18,12,35.39-.4,53.13l-5.82,8.35,9.28-3.74a82.63,82.63,0,0,0,37.77-29.6l1.28-1.81-1.31-1.8A85,85,0,0,0,141.32,74l-9-3.69ZM73.7,73.31A90.39,90.39,0,0,0,35.84,102.9l-1.37,1.84,1.35,1.85a83.73,83.73,0,0,0,37.51,29.24l9,3.59-5.56-8.17c-12.12-17.83-12-35.29.43-53.38l5.91-8.62Z"/><path class="cls-1" d="M32,76.08a1.49,1.49,0,0,1-1.08-.51A1.77,1.77,0,0,1,31,73,78.55,78.55,0,0,1,46,60C59.22,51,74.23,45.35,91.85,42.8a116.41,116.41,0,0,1,16.69-1.21,113,113,0,0,1,19,1.61c18.59,3.18,33.88,10.2,46.72,21.46a102.76,102.76,0,0,1,7.61,7.72l.86.93a1.3,1.3,0,0,1,.15,1.68c-.19.4-.41.84-1.64,1a4.71,4.71,0,0,1-1.06-.57C169.22,62.86,155,54,138,49.2a107.69,107.69,0,0,0-29.41-4c-2.43,0-4.91.08-7.38.24a111.1,111.1,0,0,0-38.78,9.35A85.27,85.27,0,0,0,34.77,74c-.43.46-.85.91-1.29,1.34A2.26,2.26,0,0,1,32,76.08Z"/><path class="cls-1" d="M77.51,177.19h0Zm0,0a2.54,2.54,0,0,1-2.05-.79,1.4,1.4,0,0,1-.17-1.23,18,18,0,0,1,1-2.71l.09-.2c1.75-3.93,3.5-7.85,5.29-11.74a2,2,0,0,1,1.67-1.35,1.73,1.73,0,0,1,.68.16,1.57,1.57,0,0,1,.85.9A2.32,2.32,0,0,1,84.8,162c-2.13,4.89-4.33,9.72-6.4,14.21C78,177,77.6,177.17,77.51,177.19Z"/><path class="cls-1" d="M138.18,177.5a1.37,1.37,0,0,1-1.21-.95c-2-4.31-4.3-9.43-6.55-14.68a1.71,1.71,0,0,1,.93-2.29,1.93,1.93,0,0,1,.77-.19,1.49,1.49,0,0,1,1.3,1c1.9,4,4.36,9.34,6.61,14.78a1.47,1.47,0,0,1-.12,1.38A2.13,2.13,0,0,1,138.18,177.5Z"/><path class="cls-1" d="M107.53,183.89c-.41,0-1.52,0-1.57-2V171.63c0-1.77,0-3.54,0-5.31,0-.71.24-1.91,1.67-1.91s1.68,1.22,1.69,1.94c0,5.2,0,10.48,0,15.68a1.64,1.64,0,0,1-1.77,1.86Z"/><path class="cls-1" d="M107.29,121c-8.55,0-15.52-7.2-15.54-16.05s6.79-16,15.51-16.07a15.79,15.79,0,0,1,15.57,16c0,8.88-7,16.11-15.51,16.12Zm0-28.54a12.23,12.23,0,0,0-12.17,12,12.64,12.64,0,0,0,3.29,9,12,12,0,0,0,8.57,3.92h.3a12.47,12.47,0,0,0,.25-24.92Z"/></svg>