<svg id="Capa_1" data-name="Capa 1" xmlns="http://www.w3.org/2000/svg" viewBox="0 0 215 215"><defs><style>.cls-1{fill:#fff;}</style></defs><title>export iconos cv</title><circle class="cls-1" cx="146.8" cy="111.94" r="5.24"/><path class="cls-1" d="M159.91,72.62H118a2.62,2.62,0,1,0,0,5.24h39.31v7.86a2.63,2.63,0,0,0,5.25,0V75.24A2.62,2.62,0,0,0,159.91,72.62Z"/><path class="cls-1" d="M81.27,146H55.37a10.74,10.74,0,0,1-7.64-3.16,10.93,10.93,0,0,1-3.16-7.64V125a2.62,2.62,0,1,0-5.24,0v10.17a16.05,16.05,0,0,0,16,16h25.9a2.63,2.63,0,0,0,0-5.25Z"/><path class="cls-1" d="M178.33,142.81a21.06,21.06,0,0,0-5.32-3.12v-12h7.87A2.62,2.62,0,0,0,183.5,125V98.83a2.62,2.62,0,0,0-2.62-2.62H173V64.75a2.62,2.62,0,0,0-2.62-2.62H159.91V54.27a2.62,2.62,0,0,0-2.63-2.62h-21V43.78a2.62,2.62,0,0,0-2.62-2.62H42.17a13,13,0,0,0-9.11,3.77l-.45.45A12.77,12.77,0,0,0,29,56.23a2.43,2.43,0,0,0-.14.66v84.33a20.52,20.52,0,0,0,20.52,20.52h68.79A20.93,20.93,0,0,0,152,175.48a21,21,0,0,0,26.31-32.67Zm-.08-41.36v21H144.36a10.49,10.49,0,0,1,0-21ZM36.32,49.09l.45-.45a7.7,7.7,0,0,1,5.4-2.24h88.9v5.25H47.19a2.62,2.62,0,0,0,0,5.24H154.66v5.24H41.73a7.64,7.64,0,0,1-5.41-13ZM118.15,156.5H49.36a15.28,15.28,0,0,1-15.28-15.28h0V64.82a12.85,12.85,0,0,0,7.65,2.55h126V96.21H144.36a15.73,15.73,0,0,0,0,31.45h23.41v10.67a19.12,19.12,0,0,0-2.62-.18A20.78,20.78,0,0,0,152,142.77a20.92,20.92,0,0,0-33.89,13.73Zm20.79,18.35a15.73,15.73,0,1,1,15.72-15.73A15.73,15.73,0,0,1,138.94,174.85Zm26.21,0a15.62,15.62,0,0,1-9.45-3.18,20.82,20.82,0,0,0,0-25.1,15.55,15.55,0,0,1,9.45-3.18,15.73,15.73,0,0,1,0,31.46Z"/></svg>