<?xml version="1.0" encoding="utf-8"?>
<!-- Generator: Adobe Illustrator 24.0.3, SVG Export Plug-In . SVG Version: 6.00 Build 0)  -->
<svg version="1.1" id="Capa_1" xmlns="http://www.w3.org/2000/svg" xmlns:xlink="http://www.w3.org/1999/xlink" x="0px" y="0px"
	 viewBox="0 0 198 189" style="enable-background:new 0 0 198 189;" xml:space="preserve">
<style type="text/css">
	.st0{fill:url(#SVGID_1_);}
	.st1{fill:url(#SVGID_2_);}
	.st2{fill:url(#SVGID_3_);}
	.st3{fill:url(#SVGID_4_);}
	.st4{fill:#FFFFFF;}
</style>
<g>
	<g>
		<g>
			
				<linearGradient id="SVGID_1_" gradientUnits="userSpaceOnUse" x1="56.9751" y1="155.2616" x2="139.3451" y2="45.6415" gradientTransform="matrix(1 0 0 -1 0 190)">
				<stop  offset="0" style="stop-color:#00EBEB"/>
				<stop  offset="0.1543" style="stop-color:#19C0D5"/>
				<stop  offset="0.3614" style="stop-color:#378EBC"/>
				<stop  offset="0.5565" style="stop-color:#4F65A8"/>
				<stop  offset="0.7339" style="stop-color:#604999"/>
				<stop  offset="0.8875" style="stop-color:#6A3790"/>
				<stop  offset="1" style="stop-color:#6E318D"/>
			</linearGradient>
			<path class="st0" d="M175.18,106.12l-2.89,5.01l-23.45,40.61c-4.32,7.5-12.33,12.12-20.98,12.12h-52.7
				c-8.65,0-16.66-4.62-20.98-12.12l-26.35-45.62c-4.33-7.5-4.33-16.74,0-24.23l9.06-15.69l16.26-28.17l1.02-1.77
				c3.83-6.62,10.5-10.99,17.96-11.93c1-0.13,2.01-0.19,3.03-0.19h52.69c8.65,0,16.66,4.62,20.98,12.12l21.88,37.9
				c0.01,0.01,0.02,0.02,0.02,0.02l4.45,7.71C179.51,89.38,179.51,98.62,175.18,106.12z"/>
			<g>
				<g>
					
						<linearGradient id="SVGID_2_" gradientUnits="userSpaceOnUse" x1="150.8027" y1="20.6248" x2="134.0811" y2="117.2391" gradientTransform="matrix(1 0 0 -1 0 190)">
						<stop  offset="0" style="stop-color:#00EBEB"/>
						<stop  offset="0.1543" style="stop-color:#19C0D5"/>
						<stop  offset="0.3614" style="stop-color:#378EBC"/>
						<stop  offset="0.5565" style="stop-color:#4F65A8"/>
						<stop  offset="0.7339" style="stop-color:#604999"/>
						<stop  offset="0.8875" style="stop-color:#6A3790"/>
						<stop  offset="1" style="stop-color:#6E318D"/>
					</linearGradient>
					<path class="st1" d="M172.29,111.13l-23.45,40.61c-4.32,7.5-12.33,12.12-20.98,12.12h-5.63c-4.52-6.12-7.18-13.68-7.18-21.88
						c0-20.4,16.54-36.93,36.94-36.93C159.49,105.05,166.46,107.29,172.29,111.13z"/>
				</g>
			</g>
			<g>
				<g>
					
						<linearGradient id="SVGID_3_" gradientUnits="userSpaceOnUse" x1="23.1587" y1="65.1358" x2="122.2506" y2="85.5734" gradientTransform="matrix(1 0 0 -1 0 190)">
						<stop  offset="0" style="stop-color:#00EBEB"/>
						<stop  offset="2.262831e-03" style="stop-color:#01EAEB"/>
						<stop  offset="0.1362" style="stop-color:#1DB9D2"/>
						<stop  offset="0.2725" style="stop-color:#3690BD"/>
						<stop  offset="0.4113" style="stop-color:#4A6DAC"/>
						<stop  offset="0.5519" style="stop-color:#5A539E"/>
						<stop  offset="0.695" style="stop-color:#654095"/>
						<stop  offset="0.8423" style="stop-color:#6C358F"/>
						<stop  offset="1" style="stop-color:#6E318D"/>
					</linearGradient>
					<path class="st2" d="M104.79,163.86H75.16c-8.65,0-16.66-4.62-20.98-12.12l-26.35-45.62c-4.33-7.5-4.33-16.74,0-24.23
						l9.06-15.69c8.01,7.34,23.15,12.34,27.79,35.41C72.33,139.52,86.05,150.22,104.79,163.86z"/>
				</g>
			</g>
			<g>
				<g>
					
						<linearGradient id="SVGID_4_" gradientUnits="userSpaceOnUse" x1="133.7258" y1="151.1823" x2="73.0323" y2="99.7786" gradientTransform="matrix(1 0 0 -1 0 190)">
						<stop  offset="0" style="stop-color:#00EBEB"/>
						<stop  offset="0.0912" style="stop-color:#12CCDC"/>
						<stop  offset="0.25" style="stop-color:#2E9DC4"/>
						<stop  offset="0.4089" style="stop-color:#4576B0"/>
						<stop  offset="0.5649" style="stop-color:#5758A1"/>
						<stop  offset="0.7172" style="stop-color:#644296"/>
						<stop  offset="0.8642" style="stop-color:#6B358F"/>
						<stop  offset="1" style="stop-color:#6E318D"/>
					</linearGradient>
					<path class="st3" d="M170.71,74.15c-0.94-0.59-20.94-27.8-62.75-22.37c-19.97,2.59-30.67-16.53-35.83-27.45
						c1-0.13,2.01-0.19,3.03-0.19h52.69c8.65,0,16.66,4.62,20.98,12.12L170.71,74.15z"/>
				</g>
			</g>
		</g>
	</g>
	<path class="st4" d="M79.41,94.64c0.03,1.79-1.39,3.27-3.18,3.31c-1.79,0.03-3.27-1.39-3.31-3.18l-0.01-0.42
		c-0.01-0.69-0.02,0.03-0.02-0.41l0.02-0.75c0.04-1.79,1.53-3.21,3.32-3.17s3.21,1.53,3.17,3.32c0,0.12,0,0.08,0,0.6
		c0,0.67-0.01-0.07-0.01,0.3L79.41,94.64L79.41,94.64z M81.16,84.97c-0.67,1.66-2.57,2.46-4.22,1.78c-1.66-0.68-2.46-2.57-1.78-4.22
		c2.29-5.59,6.19-10.34,11.13-13.65c4.81-3.23,10.58-5.11,16.79-5.11c5.01,0,9.75,1.23,13.92,3.39c3.82,1.97,7.16,4.74,9.81,8.06
		h7.46c-1.89-3.14-4.24-5.98-6.96-8.4c-3.94-3.52-8.65-6.19-13.85-7.74c-1.72-0.51-2.71-2.31-2.2-4.03c0.51-1.72,2.31-2.71,4.03-2.2
		c6.13,1.82,11.69,4.98,16.35,9.14c4.62,4.13,8.34,9.24,10.82,15c0.23,0.45,0.36,0.96,0.36,1.49c0,1.8-1.46,3.26-3.26,3.26H125.2
		V81.7c-1.01,0-2.02-0.48-2.65-1.37c-2.18-3.07-5.11-5.63-8.54-7.41c-3.26-1.69-6.98-2.65-10.94-2.65c-4.89,0-9.42,1.47-13.18,3.99
		C86.01,76.87,82.94,80.59,81.16,84.97L81.16,84.97z M104.15,51.08c1.79,0.04,3.21,1.53,3.17,3.32s-1.53,3.21-3.32,3.17l-0.47-0.01
		c-0.53-0.01,0.31,0.01-0.46,0.01c-0.75,0,0.07-0.02-0.45-0.01l-0.46,0.01c-1.79,0.04-3.27-1.39-3.31-3.18s1.39-3.27,3.18-3.31
		l0.51-0.01c0.84-0.01,0.09-0.02,0.52-0.02c0.44,0-0.32,0,0.53,0.02L104.15,51.08z M90.9,52.82c1.72-0.51,3.53,0.48,4.03,2.2
		c0.51,1.72-0.48,3.53-2.2,4.03c-7.61,2.25-14.18,6.93-18.82,13.15c-4.52,6.06-7.2,13.58-7.2,21.73c0,8.13,2.65,15.62,7.14,21.66
		c4.6,6.2,11.13,10.88,18.71,13.16c1.72,0.51,2.7,2.32,2.19,4.04c-0.51,1.72-2.32,2.7-4.04,2.19c-8.93-2.69-16.63-8.22-22.06-15.53
		c-5.3-7.14-8.44-15.98-8.44-25.53c0-9.6,3.16-18.47,8.5-25.62C74.15,61,81.91,55.48,90.9,52.82z M101.73,136.78
		c-1.79-0.05-3.2-1.54-3.15-3.33c0.05-1.79,1.54-3.2,3.33-3.16l0.6,0.01c0.34,0-0.12-0.01,0.57-0.01c0.84,0-0.14,0.02,0.42,0.01
		l0.43-0.01c1.79-0.04,3.27,1.39,3.31,3.18c0.03,1.79-1.39,3.27-3.18,3.31l-0.48,0.01c-0.86,0.01,0.04,0.02-0.5,0.02
		c-0.27,0,0.08-0.01-0.67-0.02L101.73,136.78L101.73,136.78z M115.09,135.09c-1.72,0.5-3.52-0.49-4.02-2.21s0.49-3.52,2.21-4.02
		c5.23-1.52,9.97-4.2,13.95-7.74c2.75-2.44,5.12-5.29,7.03-8.46h-7.59c-2.61,3.33-5.92,6.09-9.7,8.05
		c-4.16,2.16-8.89,3.39-13.9,3.39c-6.2,0-11.98-1.88-16.79-5.11c-4.94-3.31-8.85-8.06-11.13-13.65c-0.68-1.66,0.12-3.55,1.78-4.22
		c1.66-0.68,3.55,0.12,4.22,1.78c1.79,4.37,4.86,8.09,8.74,10.7c3.76,2.52,8.29,3.99,13.17,3.99c3.94,0,7.64-0.96,10.9-2.65
		c3.31-1.72,6.14-4.2,8.26-7.19c0.57-0.96,1.61-1.61,2.81-1.61h14.52v0.01c0.43,0,0.86,0.08,1.27,0.26c1.65,0.7,2.42,2.61,1.72,4.26
		c-2.5,5.9-6.29,11.11-10.99,15.3C126.88,130.14,121.28,133.29,115.09,135.09L115.09,135.09z"/>
</g>
</svg>
